<?xml version="1.0" encoding="utf-8"?>
<!-- Generator: Adobe Illustrator 22.1.0, SVG Export Plug-In . SVG Version: 6.00 Build 0)  -->
<svg version="1.1" id="Layer_1" xmlns="http://www.w3.org/2000/svg" xmlns:xlink="http://www.w3.org/1999/xlink" x="0px" y="0px"
	 viewBox="0 0 360 360" style="enable-background:new 0 0 360 360;" xml:space="preserve">
<style type="text/css">
	.st0{fill:#F05151;}
</style>
<g>
	<path class="st0" d="M165.6,55.7c9.2,0,18.3,0,27.5,0c3.2,0.5,6.4,1,9.6,1.3c24.5,2.5,47.3,9.6,66,26.3
		c20.9,18.7,31.3,42.4,32.4,70.2c0.2,5.5,2.6,8.3,7,11.1c20.6,13.1,39.7,27.7,45.9,53.3c0,3.1,0,6.1,0,9.2c-4.9,19-18.2,31-33.9,41
		c-28.2,18-59.6,26.8-92.2,32.1c-11.5,1.9-23.2,2.7-34.8,4.1c-8.3,0-16.6,0-24.9,0c-8.8-0.9-17.7-1.6-26.5-2.7
		c-31-3.9-61.1-11.4-88.9-26C32.1,264.7,12.6,252,6,227.1c0-3.1,0-6.1,0-9.2c4-8.3,6.4-18.2,12.5-24.6c10.5-11.1,23.3-20,35-30.1
		c2.2-1.9,4.1-4.8,4.6-7.6c1.3-6.6,0.9-13.5,2.4-20.1c9.3-39.5,34.2-64.1,73.2-74.4C144,58.4,154.9,57.5,165.6,55.7z"/>
</g>
</svg>
