<?xml version="1.0" encoding="utf-8"?>
<!-- Generator: Adobe Illustrator 22.1.0, SVG Export Plug-In . SVG Version: 6.00 Build 0)  -->
<svg version="1.1" id="icon_xA0_Image_1_" xmlns="http://www.w3.org/2000/svg" xmlns:xlink="http://www.w3.org/1999/xlink" x="0px"
	 y="0px" viewBox="0 0 392 296" style="enable-background:new 0 0 392 296;" xml:space="preserve">
<style type="text/css">
	.st0{fill:#00AA6C;}
	.st1{fill:#F2F2F2;}
	.st2{fill:#EAEAEA;}
	.st3{fill:#808080;}
	.st4{fill:#F0F1F0;}
	.st5{fill:#EDEDED;}
	.st6{fill:#A6A6A6;}
	.st7{fill:#B3B3B3;}
	.st8{fill:#D0D0D0;}
	.st9{fill:#FEFEFE;}
	.st10{fill:#A5A6A6;}
	.st11{fill:#DCDCDC;}
	.st12{fill:#BCBCBC;}
	.st13{fill:#B5B5B5;}
	.st14{fill:#BABCBB;}
	.st15{fill:#DFDFDF;}
</style>
<g>
	<path d="M83.8,222.1c0.6,3.4,2.2,6.2,4.3,8.8c11.4,13.7,22.7,27.5,34,41.2c0.5,0.6,1,1.3,1.6,1.9c1.6,1.7,1.3,3.9,0.8,5.7
		c-0.6,2.2-2.8,1-4.3,1.1c-30.8,0.1-61.6,0.1-92.5,0c-1.8,0-4.4,1.3-5.3-1.2c-0.8-2.4,0-4.7,1.8-6.8c8.8-10.4,17.4-21,26.1-31.6
		C66.3,222,63.2,228.3,63.2,206c0.1-47.3,0-94.6,0.1-142c0-4.2-1.4-7.6-4.1-10.9c-10.1-11.9-20.1-24-30.1-36.1
		C28.2,16,27,15,26.8,13.3c-0.3-2.9-0.3-4.8,3.9-4.8c30.7,0.2,61.3,0.2,92,0c3,0,4.2,1.1,5.4,3.7c24.2,53.3,48.5,106.5,72.8,159.8
		c0.7,1.5,1.4,3,2.3,4.8c1.5-1,1.1-2.7,1.9-3.8c1.4-2.9,0.1-7,4.1-8.8c1.9-0.1,2.7,1.1,3,2.6c1.5,8.2,5.3,15.6,7.9,23.4
		c0.1,1.5-0.3,3-0.8,4.4c-0.4,1.1-0.9,2.2-1.4,3.3c-0.5,1-0.8,2.1-1.2,3.2c-0.7,1.7-0.9,3.7-2.9,4.6c-9.4,23.7-18.8,47.4-28.1,71
		c-0.9,2.1-1.4,4.6-4.7,3.9c-3.1-0.6-6.7,1.6-8.8-3.1C143.2,214.1,114.1,150.6,85,87c-3.1,0.9-1.4,3.4-1.4,4.9
		c-0.1,39.9-0.1,79.8-0.1,119.7C83.5,215.2,83.1,218.7,83.8,222.1z"/>
	<path class="st0" d="M219.3,191.1c-3.5-8.1-7.2-16-8.6-24.8c-0.1-0.9-0.9-1.3-1.7-1.6c-2.5-8.1-1.6-16.3-0.2-24.4
		c0.2-1.4,0.6-2.9,1.1-4.3c4.1-21.6,14.1-39.7,31.1-53.7c0.7-0.6,1.3-1.4,1.9-2.2c2.8-3.4,6.5-5.7,10.3-7.7
		c23.9-12.4,48.5-14.4,73.8-4.9c0.8,0.3,1.6,0.6,2.3,0.9c3,1.4,4.3,0.5,4.2-2.9c-0.1-4.7-0.1-9.3,0-14c0.1-1.8-0.7-4.1,1.9-4.9
		c0.1,7.6,0.3,15.2,0.3,22.9c0,2.1,0.3,3.6,2.4,4.9c24.8,14.8,39.2,36.5,43.1,65.2c0.1,0.5,0.3,0.9,0.5,1.4c1.1,3.4,0.8,7,1.3,10.5
		c0.2,2,0.2,4-0.2,5.9c-0.6,1.8-0.8,3.6-0.8,5.4c-0.1,1.5-0.7,2.9-0.9,4.4c-0.3,2.2-1,4.3-1.5,6.4c-0.4,1.1-0.7,2.3-1.1,3.4
		c-0.9,2.7-2.1,5.3-3,8c-8.5,19-22.5,32.8-40.3,43c-13.6,6.1-27.7,9.9-42.8,9.3c-10.7-0.4-20.9-3-31-6.6
		c-16.2-7.9-30.2-18.2-39.8-33.9C220.7,195.1,219.5,193.3,219.3,191.1z"/>
	<path d="M335.6,46.7c-0.1,7.4-0.3,14.9-0.3,22.3c0,2.4-0.4,3.3-3.1,2.2c-30.8-13.4-60.1-10.5-87.8,8.5c-0.4,0.3-0.9,0.3-1.4,0.5
		c9.1-23,18.3-45.9,27.3-68.9c1.2-3.1,3.4-2.6,5.7-2.6c28.3,0,56.7,0,85,0.1c1.8,0,4.4-1.3,5.2,1.1c1,2.6-0.1,5-2.4,7
		c-6.2,5.6-12.1,11.4-18.1,17.2c-2.2,2.1-4.2,4.2-6.5,6.2C337.1,42.1,335.8,44.1,335.6,46.7z"/>
	<path d="M261.4,229.7c7.6,1.5,14.8,4.5,22.6,5.5c16.6,2.1,32.4-0.3,47.6-7.1c1.4-0.6,2.8-1,4.2-1.5c2.6,2.4,1.5,5.4,1.7,8.3
		c0,0.8,0,1.7,0,2.5c0,0.8,0,1.6,0,2.4c0,0.8,0,1.5-0.1,2.3c-0.2,1.6-1.4,3.2-0.2,4.9c8,9.2,17.1,17.2,25.6,25.8
		c0.8,0.8,1.7,1.6,2.5,2.5c1.4,1.6,1,3.6,0.5,5.2c-0.4,1.3-2.3,0.8-3.6,0.8c-42.2,0-84.3,0-126.5,0c-1.5,0-3.7,1.1-4.3-1.1
		c-0.6-2.2-0.4-4.4,1.6-6.3c8.1-7.6,16.1-15.5,24.1-23.2c0.5-0.5,0.8-1,1.2-1.5c0.5-0.9,0.8-1.9,1.3-2.8c0.5-1,0.5-2,0.5-3.1
		c-0.1-0.7-0.1-1.4-0.1-2.2c-0.1-1.1-0.1-2.1-0.1-3.2C259.8,235.1,258.6,232,261.4,229.7z"/>
	<path class="st1" d="M260,247c-0.3,1-0.9,1.8-1.9,2.2c-2.6-4.7-7.9-5.6-11.9-8.4c-10.1-7-19-14.9-25.5-25.3
		c-2.1-3.3-4.6-6.4-6.9-9.6c0.5-1.8,0.8-3.7,2.2-5.2c0.2,0.1,0.4,0.3,0.6,0.4c8.4,18.7,21.8,32.5,40.2,41.4
		C258.4,243.4,261.1,243.9,260,247z"/>
	<path class="st2" d="M382.1,152c-0.1-3.7-0.1-7.3-0.2-11c1.9,3,2,6.6,2.4,9.9c2.7,22.4-0.8,43.5-13.5,62.6
		c-0.2,0.2-0.6,0.4-0.8,0.5c-0.6,0.3-1,0.2-1.4-0.4c-0.6-1.6,0.1-2.9,0.9-4.2c9-14.6,12.7-30.5,12.5-47.5
		C382,158.6,383.2,155.3,382.1,152z"/>
	<path class="st3" d="M83.8,222.1c-1.8-2.8-0.6-5.9-0.6-8.8c-0.1-41.1-0.1-82.2,0.1-123.2c0-0.9-2-3.8,1.7-3.1
		c-1.8,1.4-0.8,3.4-0.8,5.1c-0.1,42.7-0.1,85.4-0.1,128.1C84,220.8,83.9,221.5,83.8,222.1z"/>
	<path class="st4" d="M209.8,136c-1.6,9.5-0.2,19.1-0.9,28.6c-1.3,2.8-2.6,5.6-3.9,8.5c-0.4-12-0.3-23.9,3.9-35.4
		C209.1,137.1,209.5,136.6,209.8,136z"/>
	<path class="st5" d="M369,214c0.3,0,0.7,0,1,0c-3.4,8.4-10.3,14-16.8,19.8c-4.3,3.8-9.1,7.1-14.3,9.7c-1.6,0.8-2.1,2-2,3.6
		c-1.5-1.5-1.5-3.2-1-5.1c8.2-5.2,16.1-10.6,22.7-17.8c2.4-2.6,4.3-5.5,6.8-8C366.4,215.1,367,213.5,369,214z"/>
	<path class="st6" d="M261.4,229.7c-0.1,3.1-0.2,6.2-0.3,9.3c-1.2,1.1-2.6,0.6-3.7,0c-17.9-9.4-31.1-23.1-38.8-42
		c-0.2-0.6-0.3-1.3-0.5-1.9c0.4-1.3,0.8-2.6,1.2-3.9c9.9,16.4,23,29.3,40.6,37.3C260.5,228.7,260.9,229.3,261.4,229.7z"/>
	<path class="st7" d="M218.1,195c2.5,4.4,4.9,8.9,7.6,13.2c8.7,13.8,20.1,24.6,35.4,30.8c0,1,0,2,0,3c-1.7,1.4-3.2,0.3-4.6-0.4
		c-16.9-8.7-29.6-21.6-38.3-38.4c-0.9-1.7-1.2-3.4-1.4-5.2C216.6,196.7,217.3,195.8,218.1,195z"/>
	<path class="st8" d="M216.8,197.9c5.4,10.3,11.2,20.3,19.9,28.2c7.2,6.6,15,12.5,24.4,15.9c0,0.7,0,1.3,0,2
		c-5.4,0-9.4-3.5-13.5-6.2c-13.9-9.2-24.7-21.2-31.6-36.6c-0.2-0.2-0.2-0.3-0.1-0.5C215.9,199.7,215.6,198.6,216.8,197.9z"/>
	<path class="st9" d="M267.4,198.7c0-33.3,0-66,0-98.9c1.5-0.7,2.5,0.6,3.5,1.2c23.9,15.2,47.7,30.4,71.6,45.5
		c2.1,1.3,4.4,2.1,0.6,4.5c-24.6,15.5-49.2,31.2-73.7,46.8C268.9,198.2,268.4,198.3,267.4,198.7z"/>
	<path class="st10" d="M336,236c-0.1-3.1-0.2-6.2-0.3-9.3c4.5-3.1,9.1-6.1,13.4-9.4c11.4-8.6,19.2-20.1,25.7-32.5c2,1.9,1,4,0.3,6
		c-6.1,17.6-16.9,31.8-31.9,42.8C341.2,235,339,236.8,336,236z"/>
	<path class="st11" d="M369,214c-6.5,7.4-12.5,15.3-20.6,21.2c-3.8,2.8-7.5,6-12.3,6.8c0-0.7,0-1.3,0-2c3.4-4.3,8.6-6.2,12.6-9.5
		c15.9-13.1,25.8-29.7,29.9-49.8c0.9-4.5,2.4-9,1.6-13.7c-0.5-1.5,0.9-2.6,1-4c0.9-1.6-0.1-3.5,0.7-5.2c0.1-1.9,0.2-3.9,0.3-5.8
		c1.7,8.2,1.3,16.4,0.4,24.6c-1.3,12.5-5.8,24-12.6,34.6C369.4,212,369.3,213.1,369,214z"/>
	<path class="st12" d="M380.2,167c2.2,6.2,0.3,12.1-1.3,17.9c-6.4,24.4-20.3,43.2-42.9,55.1c0-0.7,0-1.3,0-2
		c7.9-5.5,15.6-11.2,22-18.5c8.9-10.1,15.4-21.6,18-35c0.4-2,1.3-3.8,1.7-5.7c1-1.5,0.5-3.4,1.2-5
		C378.6,171.4,379.8,169.3,380.2,167z"/>
	<path class="st13" d="M378,179c-2.1,15-8.3,28.3-18.3,39.6c-6.8,7.7-14.1,15.1-23.8,19.4c0-0.7,0-1.3,0-2
		c19.6-10.3,31.5-26.9,38.6-47.3c0.4-1.2,0.2-2.6,0.3-3.9c0.2-2.9,1.9-5.3,3.1-7.9C378.6,177.6,378.6,178.3,378,179z"/>
	<path class="st14" d="M381.9,157.8c0.1,1.8,0.7,3.6-0.7,5.2C381,161.2,380.9,159.5,381.9,157.8z"/>
	<path class="st14" d="M378,179c0-0.7,0-1.4-0.1-2.1c0-1.1,0.1-2.2,1-3.1C378.8,175.6,379.7,177.5,378,179z"/>
	<path class="st15" d="M216,201.2c4.1,5.4,6.6,11.8,11.1,16.9c9.6,10.9,19.9,20.8,34,25.9c0.3,1.2,0.2,2.3-1,3
		c-0.9-3.4-4.2-3.5-6.5-4.7c-15.9-8.3-27.8-20.5-36-36.4C216.7,204.4,215.8,203,216,201.2z"/>
</g>
</svg>
