<?xml version="1.0" encoding="utf-8"?>
<!-- Generator: Adobe Illustrator 22.1.0, SVG Export Plug-In . SVG Version: 6.00 Build 0)  -->
<svg version="1.1" id="Layer_1" xmlns="http://www.w3.org/2000/svg" xmlns:xlink="http://www.w3.org/1999/xlink" x="0px" y="0px"
	 viewBox="0 0 996.1 810.2" style="enable-background:new 0 0 996.1 810.2;" xml:space="preserve">
<style type="text/css">
	.st0{fill-rule:evenodd;clip-rule:evenodd;fill:#F0F0F0;}
	.st1{display:none;}
	.st2{fill-rule:evenodd;clip-rule:evenodd;fill:#F4F6F8;}
	.st3{fill-rule:evenodd;clip-rule:evenodd;fill:#FFFFFF;}
	.st4{fill-rule:evenodd;clip-rule:evenodd;fill:#ADCBE7;}
	.st5{fill-rule:evenodd;clip-rule:evenodd;fill:#F28F52;}
	.st6{fill-rule:evenodd;clip-rule:evenodd;fill:#EAE37E;}
	.st7{fill-rule:evenodd;clip-rule:evenodd;fill:#C4EFE4;}
	.st8{fill-rule:evenodd;clip-rule:evenodd;fill:#EAA1CC;}
	.st9{fill-rule:evenodd;clip-rule:evenodd;fill:none;stroke:#D9534F;stroke-miterlimit:10;}
	.st10{fill-rule:evenodd;clip-rule:evenodd;fill:none;stroke:#EAE37E;stroke-miterlimit:10;}
	.st11{fill:#F4F6F8;}
	.st12{fill-rule:evenodd;clip-rule:evenodd;fill:#CCCCCC;}
	.st13{fill-rule:evenodd;clip-rule:evenodd;fill:#EBECEC;}
	.st14{fill-rule:evenodd;clip-rule:evenodd;fill:#EFB195;}
	.st15{fill-rule:evenodd;clip-rule:evenodd;fill:#F7B89C;}
	.st16{fill-rule:evenodd;clip-rule:evenodd;fill:#E7AA8F;}
	.st17{fill-rule:evenodd;clip-rule:evenodd;fill:#382E2B;}
	.st18{fill-rule:evenodd;clip-rule:evenodd;fill:#5C463C;}
	.st19{fill-rule:evenodd;clip-rule:evenodd;fill:#503E35;}
	.st20{fill-rule:evenodd;clip-rule:evenodd;fill:#4F5561;}
	.st21{fill-rule:evenodd;clip-rule:evenodd;fill:#494E59;}
	.st22{fill-rule:evenodd;clip-rule:evenodd;fill:#656C7A;}
	.st23{fill-rule:evenodd;clip-rule:evenodd;fill:#3C424D;}
	.st24{fill-rule:evenodd;clip-rule:evenodd;fill:#877275;}
	.st25{fill-rule:evenodd;clip-rule:evenodd;fill:#805B62;}
	.st26{fill-rule:evenodd;clip-rule:evenodd;fill:#754253;}
	.st27{fill-rule:evenodd;clip-rule:evenodd;fill:#A49498;}
	.st28{fill-rule:evenodd;clip-rule:evenodd;fill:#98A8B7;}
	.st29{fill-rule:evenodd;clip-rule:evenodd;fill:#83919E;}
	.st30{fill-rule:evenodd;clip-rule:evenodd;fill:#7B8792;}
	.st31{fill-rule:evenodd;clip-rule:evenodd;fill:#515151;}
</style>
<rect x="55.6" y="51.8" class="st0" width="912.1" height="494"/>
<g class="st1">
	
		<text transform="matrix(1 0 0 1 -57.764 78.8182)" style="display:inline;fill:#14337F; font-family:'MyriadPro-Regular'; font-size:30px;">&lt;  &gt;</text>
	
		<text transform="matrix(1 0 0 1 -37.764 80.8182)" style="display:inline;fill:#14337F; font-family:'MyriadPro-Regular'; font-size:30px;">/</text>
</g>
<rect x="40.4" y="36.5" class="st2" width="912.1" height="494"/>
<rect x="119" y="79.8" class="st3" width="752.3" height="371.8"/>
<rect x="464.9" y="149.1" class="st4" width="31.5" height="31.5"/>
<rect x="488.5" y="169.1" class="st4" width="31.5" height="31.5"/>
<rect x="491.9" y="194.7" class="st5" width="31.5" height="31.5"/>
<rect x="479.4" y="240.3" class="st5" width="31.5" height="31.5"/>
<rect x="566.2" y="147.6" class="st5" width="31.5" height="31.5"/>
<rect x="568.9" y="172.2" class="st5" width="31.5" height="31.5"/>
<rect x="587.4" y="256.1" class="st5" width="31.5" height="31.5"/>
<rect x="759.1" y="320.4" class="st5" width="31.5" height="31.5"/>
<rect x="771.8" y="365.4" class="st5" width="31.5" height="31.5"/>
<rect x="464.9" y="210.2" class="st4" width="31.5" height="31.5"/>
<rect x="594.2" y="175.1" class="st4" width="31.5" height="31.5"/>
<rect x="670.4" y="224.6" class="st4" width="31.5" height="31.5"/>
<rect x="568.9" y="212.1" class="st6" width="31.5" height="31.5"/>
<rect x="597.7" y="229.2" class="st6" width="31.5" height="31.5"/>
<rect x="690.9" y="258.9" class="st6" width="31.5" height="31.5"/>
<rect x="780.6" y="243.1" class="st6" width="31.5" height="31.5"/>
<rect x="663" y="152.2" class="st6" width="31.5" height="31.5"/>
<rect x="784.1" y="167.6" class="st7" width="31.5" height="31.5"/>
<rect x="774.9" y="194.7" class="st7" width="31.5" height="31.5"/>
<rect x="752.6" y="240.3" class="st7" width="31.5" height="31.5"/>
<rect x="784.1" y="277.4" class="st7" width="31.5" height="31.5"/>
<rect x="513.6" y="229.2" class="st7" width="31.5" height="31.5"/>
<rect x="469.1" y="274.6" class="st7" width="31.5" height="31.5"/>
<rect x="571.6" y="292.9" class="st7" width="31.5" height="31.5"/>
<rect x="756.1" y="142.2" class="st8" width="31.5" height="31.5"/>
<rect x="678.8" y="179" class="st8" width="31.5" height="31.5"/>
<rect x="675.1" y="298.8" class="st8" width="31.5" height="31.5"/>
<rect x="678.8" y="339.3" class="st8" width="31.5" height="31.5"/>
<rect x="501.1" y="283" class="st8" width="31.5" height="31.5"/>
<path class="st9" d="M256.2,221.7h-61.5c-6.6,0-12-5.4-12-12v-61.5c0-6.6,5.4-12,12-12h61.5c6.6,0,12,5.4,12,12v61.5
	C268.2,216.3,262.8,221.7,256.2,221.7z"/>
<rect x="177.3" y="156.2" class="st3" width="45.5" height="85.6"/>
<path class="st10" d="M340.2,390.3h-56.8c-6.6,0-12-5.4-12-12V294c0-6.6,5.4-12,12-12h56.8c6.6,0,12,5.4,12,12v84.2
	C352.2,384.9,346.8,390.3,340.2,390.3z"/>
<path class="st3" d="M401.8,390.3h-56.8c-6.6,0-12-5.4-12-12V294c0-6.6,5.4-12,12-12h56.8c6.6,0,12,5.4,12,12v84.2
	C413.8,384.9,408.4,390.3,401.8,390.3z"/>
<path class="st10" d="M341.8,167.9h-61.5c-6.6,0-12-5.4-12-12V94.4c0-6.6,5.4-12,12-12h61.5c6.6,0,12,5.4,12,12v61.5
	C353.8,162.5,348.4,167.9,341.8,167.9z"/>
<rect x="267.6" y="79.8" class="st3" width="111.9" height="68.1"/>
<path class="st10" d="M344.8,408.1h-61.5c-6.6,0-12-5.4-12-12v-61.5c0-6.6,5.4-12,12-12h61.5c6.6,0,12,5.4,12,12v61.5
	C356.8,402.7,351.4,408.1,344.8,408.1z"/>
<rect x="272.1" y="316.6" class="st3" width="45.5" height="76.9"/>
<path class="st10" d="M344.8,323h-61.5c-6.6,0-12-5.4-12-12v-61.5c0-6.6,5.4-12,12-12h61.5c6.6,0,12,5.4,12,12V311
	C356.8,317.6,351.4,323,344.8,323z"/>
<rect x="315" y="232.5" class="st3" width="50.7" height="155.6"/>
<path class="st10" d="M340,282h-56.8c-6.6,0-12-5.4-12-12v-84.2c0-6.6,5.4-12,12-12H340c6.6,0,12,5.4,12,12V270
	C352,276.6,346.6,282,340,282z"/>
<path class="st11" d="M238.9,156.2h-67.1c-6.6,0-12-5.4-12-12v-16c0-6.6,5.4-12,12-12h67.1c6.6,0,12,5.4,12,12v16
	C250.9,150.8,245.5,156.2,238.9,156.2z"/>
<rect x="269.5" y="171.5" class="st3" width="45.5" height="109.5"/>
<path class="st3" d="M279.3,281.9h-56.8c-6.6,0-12-5.4-12-12v-13c0-6.6,5.4-12,12-12h56.8c6.6,0,12,5.4,12,12v13
	C291.3,276.5,285.9,281.9,279.3,281.9z"/>
<path class="st11" d="M301.7,245.9h-67.1c-6.6,0-12-5.4-12-12v-16c0-6.6,5.4-12,12-12h67.1c6.6,0,12,5.4,12,12v16
	C313.7,240.5,308.3,245.9,301.7,245.9z"/>
<path class="st11" d="M370.4,342.6h-67.1c-6.6,0-12-5.4-12-12v-16c0-6.6,5.4-12,12-12h67.1c6.6,0,12,5.4,12,12v16
	C382.4,337.2,377,342.6,370.4,342.6z"/>
<path class="st11" d="M384.4,187.9h-67.1c-6.6,0-12-5.4-12-12v-16c0-6.6,5.4-12,12-12h67.1c6.6,0,12,5.4,12,12v16
	C396.4,182.5,391,187.9,384.4,187.9z"/>
<path class="st11" d="M370.4,428.1h-67.1c-6.6,0-12-5.4-12-12v-16c0-6.6,5.4-12,12-12h67.1c6.6,0,12,5.4,12,12v16
	C382.4,422.7,377,428.1,370.4,428.1z"/>
<g>
	<circle class="st6" cx="250.9" cy="136.2" r="3"/>
	<circle class="st10" cx="250.9" cy="136.2" r="4.6"/>
</g>
<g>
	<circle class="st6" cx="305.2" cy="167.9" r="3"/>
	<circle class="st10" cx="305.2" cy="167.9" r="4.6"/>
</g>
<g>
	<circle class="st6" cx="350.8" cy="187.9" r="3"/>
	<circle class="st10" cx="350.8" cy="187.9" r="4.6"/>
</g>
<g>
	<circle class="st6" cx="268.1" cy="205.9" r="3"/>
	<circle class="st10" cx="268.1" cy="205.9" r="4.6"/>
</g>
<g>
	<circle class="st6" cx="291.2" cy="322.6" r="3"/>
	<circle class="st10" cx="291.2" cy="322.6" r="4.6"/>
</g>
<g>
	<circle class="st6" cx="291.2" cy="408.1" r="3"/>
	<circle class="st10" cx="291.2" cy="408.1" r="4.6"/>
</g>
<path class="st10" d="M256.2,136.2c6.6,0,12,5.4,12,12"/>
<rect x="460.9" y="122.2" class="st12" width="56" height="3"/>
<rect x="566.2" y="122.2" class="st12" width="56" height="3"/>
<rect x="658.2" y="122.2" class="st12" width="56" height="3"/>
<rect x="756.1" y="122.2" class="st12" width="56" height="3"/>
<g>
	<path class="st13" d="M370,751.1c-14.2,1.7-13.8,7.7-20.9,12.7c-7.1,4.9,1.3,7.3,10.7,9c9.4,1.7,11.3,3.7,37.9,3.9
		c26.6,0.2,35-0.4,57.6,0c22.6,0.4,45.2-0.6,58.4-2.6c13.2-1.9,18.4-11.6,13.8-15.1c-4.6-3.4-16.1-8.2-27.6-9.7
		c-5.6-0.7-23.1-0.9-39.6-0.8C429.2,748.7,401,747.3,370,751.1z"/>
	<g>
		<path class="st14" d="M463.2,233.7c-0.2,0.9-0.3,1.7-0.2,2.5l0,0l-1.9,10.1c-0.4,0.7-0.7,1.5-0.7,2.3c0,1.8,1.4,2.7,3.2,2.1
			c2-0.7,2.7-2.2,3.3-4.1l1.6-5c0.9-1.9,0.9-3.4,1-5.4c0.1-1.9,0.2-3.6,0.5-5.4c0.1-1,0.1-2.3-0.6-2.8
			C466.5,225.6,463.6,231.6,463.2,233.7z"/>
		<path class="st14" d="M412.4,233.7c0.2,0.9,0.3,1.7,0.2,2.5l0,0l1.9,10.1c0.4,0.7,0.7,1.5,0.7,2.3c0,1.8-1.4,2.7-3.2,2.1
			c-2-0.7-2.7-2.2-3.3-4.1l-1.6-5c-0.9-1.9-0.9-3.4-1-5.4c-0.1-1.9-0.2-3.6-0.5-5.4c-0.1-1-0.1-2.3,0.6-2.8
			C409.1,225.6,412,231.6,412.4,233.7z"/>
		<path class="st15" d="M439.8,278c3.6,0,6.3-1.7,8.8-4.4c3.2-3.4,5.4-6.5,8.5-10.8c4.6-6.4,5.7-9.3,6.6-16.9l1.8-14.7
			c5.9-47.7-61.6-47.7-55.6,0l1.8,14.7c0.9,7.5,2.1,10.5,6.6,16.9c3.1,4.3,5.3,7.4,8.5,10.8c2.5,2.6,5.2,4.4,8.8,4.4H439.8z"/>
		<path class="st15" d="M459.6,270.4l-2.7-10l-2.3-25h-33.8l-2.3,25l-2.7,9.9c0.4,0,0.8,0.1,1.4,0.1c2.3,0.2,6.5,0.1,10.3,0.1
			c6.7,0.1,13.5,0.1,20.2,0c3.8,0,8.1,0,10.3-0.1C458.8,270.5,459.3,270.5,459.6,270.4z"/>
		<g>
			<g>
				<path class="st15" d="M525.9,394.9c0,0,3.3,6.5,2.6,18.5c-0.7,12-5.6,45-8,55.1l-0.6,2.3l-5.6,12l-6,8.4l-2.9,0.2l-6.2-1.9
					c0,0,0.4-39.2-0.1-45.7c-0.5-6.5,0.3-19.5,0.2-26.1c-0.1-6.6,2-18,2-18L525.9,394.9z"/>
				<path class="st14" d="M525.9,394.9c0,0,3.3,6.5,2.6,18.5c-0.2,2.4-0.5,5.6-0.9,9.3c-1.9-0.9-4.4-2.1-5.8-2.7
					c-2.4-1.1-8.1-1.8-11.2-1.8c-3.1,0-6.7-1.6-11.2,0.1l0-0.6c-0.1-6.6,2-18,2-18L525.9,394.9z"/>
				<path class="st16" d="M525.9,394.9c0,0,3.3,6.5,2.6,18.5c-0.1,1.4-0.2,3-0.4,4.9c-2-0.7-4.3-1.6-5.2-1.8c-1.6-0.5-8.7-2-11.6-2
					c-2.3,0-8,0.3-11.8,1.2c0.2-6.7,2-16,2-16L525.9,394.9z"/>
				<path class="st14" d="M499.3,479.5c0.1-12.1,0.2-31.4-0.2-35.7c-0.3-4.5,0-12.3,0.1-18.8l7.7,10.3l-0.9,44.3L499.3,479.5
					L499.3,479.5z"/>
			</g>
			<path class="st15" d="M508.3,491.2c-3.5,3.2-8.5,6.1-11.5,9.5c-0.1,0.1-0.3,0.1-0.4,0.2c-2.8,1.1-6.3,1.5-9.2,1.4
				c-2.7-0.1-5.8-0.6-8.2-2c-0.6-0.3-1.2-0.7-1.7-1.2l4.4-3.2l3.8-6.4l-5.1,1c0,0-4.7,3.2-7.5,4.4c-4.5,1.9-6.3-1.3-2.4-4.7
				l16.2-10.1l12.9-0.6L508.3,491.2z"/>
		</g>
		<g>
			<g>
				<path class="st15" d="M349.7,394.9c0,0-3.3,6.5-2.6,18.5c0.7,12,5.6,45,8,55.1l0.6,2.3l5.6,12l6,8.4l2.9,0.2l6.2-1.9
					c0,0-0.4-39.2,0.1-45.7c0.5-6.5-0.3-19.5-0.2-26.1c0.1-6.6-2-18-2-18L349.7,394.9z"/>
				<path class="st14" d="M349.7,394.9c0,0-3.3,6.5-2.6,18.5c0.1,2.4,0.5,5.6,0.9,9.3c1.9-0.9,4.4-2.1,5.8-2.7
					c2.4-1.1,8.1-1.8,11.2-1.8c3.1,0,6.7-1.6,11.2,0.1l0-0.6c0.1-6.6-2-18-2-18L349.7,394.9z"/>
				<path class="st16" d="M349.7,394.9c0,0-3.3,6.5-2.6,18.5c0.1,1.4,0.2,3,0.4,4.9c2-0.7,4.3-1.6,5.2-1.8c1.6-0.5,8.7-2,11.6-2
					c2.3,0,8,0.3,11.8,1.2c-0.2-6.7-2-16-2-16L349.7,394.9z"/>
				<path class="st14" d="M376.2,479.5c-0.1-12.1-0.2-31.4,0.2-35.7c0.3-4.5,0-12.3-0.1-18.8l-7.7,10.3l0.9,44.3L376.2,479.5
					L376.2,479.5z"/>
			</g>
			<path class="st15" d="M367.3,491.2c3.5,3.2,8.5,6.1,11.5,9.5c0.1,0.1,0.3,0.1,0.4,0.2c2.8,1.1,6.3,1.5,9.2,1.4
				c2.7-0.1,5.8-0.6,8.2-2c0.6-0.3,1.2-0.7,1.7-1.2l-4.4-3.2l-3.8-6.4l5.1,1c0,0,4.7,3.2,7.5,4.4c4.5,1.9,6.3-1.3,2.4-4.7
				l-16.2-10.1l-12.9-0.6L367.3,491.2z"/>
		</g>
		<g>
			<path class="st17" d="M498.1,755.6l-0.5,3.1c0,0-0.7,1.8-3.4,3.1c-2.7,1.4-7.1,2.3-7.1,2.3l-0.5,2.1c0,0-4.4,3.8-7.7,4.6
				c-3.3,0.8-7.9,1.1-12.4,0.7c-4.6-0.4-7.3-2-7.3-2l0-5.1l7.4-1.5l15-5.5l12-1.9L498.1,755.6z"/>
			<path class="st18" d="M490.7,743.9c1.7,2.5,4.1,3.9,4.1,3.9s2.5,1.1,3,2.9c0.5,1.8,0.4,4.9,0.4,4.9v0c0,0.1-0.5,1.9-4.5,3.6
				c-4.2,1.8-6.6,2.1-6.6,2.1s-2.7,3.4-9,4.1c-6.3,0.7-13.9,0.6-18.9-1c0,0-1.6-2.2-1.8-6.6c-0.2-4.4,1-8.4,1.6-10.7
				c1-3.7,2.2-5.2,2.5-9.1c0.1-2.2,0.2-4.7,0.2-4.7s3.1,0.4,7.3,0.6c4.2,0.2,6.4,0.5,11.2-0.1c4.9-0.7,6.2-0.9,6.2-0.9
				C486.5,737.2,488.3,740.3,490.7,743.9z"/>
			<path class="st19" d="M463,765.3c-1.4-0.2-2.6-0.5-3.8-0.9c0,0-1.6-2.2-1.8-6.6c-0.2-4.4,1-8.4,1.6-10.7c1-3.7,2.2-5.2,2.5-9.1
				c0.1-2.2,0.2-4.7,0.2-4.7s1.5,0.2,3.9,0.4l-0.4,12.8C465.3,746.5,462.6,756.5,463,765.3z"/>
		</g>
		<g>
			<path class="st17" d="M377.4,755.6l0.5,3.1c0,0,0.7,1.8,3.4,3.1c2.7,1.4,7.1,2.3,7.1,2.3l0.5,2.1c0,0,4.4,3.8,7.7,4.6
				c3.3,0.8,7.9,1.1,12.4,0.7c4.6-0.4,7.3-2,7.3-2l0-5.1l-7.4-1.5l-15-5.5l-12-1.9L377.4,755.6z"/>
			<path class="st18" d="M384.9,743.9c-1.7,2.5-4.1,3.9-4.1,3.9s-2.5,1.1-3,2.9c-0.5,1.8-0.4,4.9-0.4,4.9l0,0c0,0.1,0.5,1.9,4.5,3.6
				c4.2,1.8,6.6,2.1,6.6,2.1s2.7,3.4,9,4.1c6.3,0.7,13.9,0.6,18.9-1c0,0,1.6-2.2,1.8-6.6c0.2-4.4-1-8.4-1.6-10.7
				c-1-3.7-2.2-5.2-2.5-9.1c-0.1-2.2-0.2-4.7-0.2-4.7s-3.1,0.4-7.3,0.6c-4.2,0.2-6.4,0.5-11.2-0.1c-4.9-0.7-6.2-0.9-6.2-0.9
				C389.1,737.2,387.3,740.3,384.9,743.9z"/>
			<path class="st19" d="M412.6,765.3c1.4-0.2,2.6-0.5,3.8-0.9c0,0,1.6-2.2,1.8-6.6c0.2-4.4-1-8.4-1.6-10.7c-1-3.7-2.2-5.2-2.5-9.1
				c-0.1-2.2-0.2-4.7-0.2-4.7s-1.5,0.2-3.9,0.4l0.4,12.8C410.3,746.5,413,756.5,412.6,765.3z"/>
		</g>
		<g>
			<path class="st20" d="M495.3,597.2c-0.4,1.4-0.4,3,0.3,5c0.8,2.5,0.7,6.1,0.3,7.7c-0.4,1.6-0.8,2.8-0.7,5.1
				c0.1,2.3,0.8,4.7,1.5,7.9c0.7,3.2,0.3,7.3,0.1,11.1c-0.2,3.8-1.4,7.7-0.5,13.9c0.9,6.2,0.2,22.4,0,26.1c-0.4,8,0.6,14.8-1.5,22.3
				c-0.8,3-1.1,5.1-1,7.8c0.1,4.1-0.5,6.9-1,10.9c-0.2,1.7-0.8,5-1.2,7.8c0.5,0.2,0.8,0.8,0.9,1.8c0.1,0.8,0.1,1.8,0.2,3.2
				c0.2,3.6,0.2,6.5,0.2,8.1c0,1.6-0.2,1.9-1.3,2.4c-1.1,0.6-4.3,1.6-9.1,1.9c-4.8,0.3-7.6,0.7-13.6-0.3c-6-1-8.2-1.3-9.6-2
				c-1.4-0.7-1.5-1.9-1.5-3.4c0-1.6,0-8,0.2-9.9c0.1-0.9,0.6-1.2,1.2-1.3c-1.5-10.6-2.8-31-0.6-36.9c1.4-3.8,2.1-5.2,1-8.1
				c-1.1-2.9-0.6-3.4-0.3-7.1c0.3-3.6,0.5-4.9-0.5-9.2c-1-4.4-0.3-10.1,0.1-11.7c0.4-1.6,1-3.8-0.3-6.4c-1.3-2.7-1.5-6.9-0.8-9.3
				c0.6-2.4,1.1-4.2-0.3-6.3c-1.4-2.1-1.2-3.7,0.1-5.7c1.3-2-1.8-7.5-4.2-13.7c-1.4-3.5-1.5-6.5-1.3-9.3c0.4-4.7-1.2-6.9-1.6-13.2
				c-0.2-3.3-0.6-4.1-0.6-5.4c0-1.8-1.9-8.5-2.3-9.8c-0.8-2.5-1.5-6.7-2.1-8.3c-0.5-1.6-1.1-5.6-1.6-7.1c-0.5-1.6-1.2-4.6-1.7-5.5
				c-0.5-0.9-0.8-1.9-1.1-2.1c-0.3-0.3-0.4-0.5-1-0.5c-1.6,0-3.2,0-4.8,0c-0.6,0-0.7,0.3-1,0.5c-0.3,0.3-0.7,1.3-1.1,2.1
				c-0.5,0.9-1.2,3.9-1.7,5.5c-0.5,1.6-1,5.6-1.6,7.1c-0.5,1.6-1.3,5.8-2.1,8.3c-0.6,1.9-1.2,7.2-1.2,9.8c0,2.7-0.7,7.1-1.9,9.6
				c-1,2-2.1,4.2-2.1,7.5c0,3.2-1,6.7-2.6,10.9c-2.4,6.2-3.4,11.7-2,13.7c1.3,2,1.5,3.6,0.1,5.7c-1.4,2.1-1,3.9-0.3,6.3
				c0.6,2.4,0.4,6.7-0.8,9.3c-1.3,2.7-0.6,4.8-0.3,6.4c0.4,1.6,1.1,7.4,0.1,11.7c-1,4.4-0.8,5.6-0.5,9.2c0.3,3.6,0.9,4.2-0.3,7.1
				c-1.1,2.9-0.4,4.3,1,8.1c2.5,6.7,0.5,29.6-0.6,36.9c0.6,0.1,1.1,0.4,1.2,1.3c0.1,2,0.1,8.3,0.2,9.9c0,1.6-0.1,2.7-1.5,3.4
				c-1.4,0.7-3.6,1-9.6,2c-6,1-8.8,0.6-13.6,0.3s-8-1.3-9.1-1.9c-1.1-0.6-1.3-0.9-1.3-2.4c0-1.6,0-4.5,0.2-8.1
				c0.1-1.4,0.1-2.4,0.2-3.2c0.1-1,0.4-1.6,0.9-1.8c-0.5-2.8-1-6.1-1.2-7.8c-0.5-3.7-1.1-7.1-1-10.9c0.1-2.8-0.2-4.9-1-7.8
				c-2.1-7.4-1-14.3-1.5-22.3c-0.2-3.7-0.9-19.9,0-26.1c0.9-6.2-0.2-10.1-0.5-13.9c-0.2-3.8-0.6-7.9,0.1-11.1
				c0.7-3.2,1.4-5.5,1.5-7.9c0.1-2.3-0.3-3.5-0.7-5.1c-0.4-1.6-0.5-5.2,0.3-7.7c0.7-2,0.6-3.6,0.3-5c-0.7-2.4-1.4-9.5-1.5-11.3
				c-0.3-5.9-2.1-7.6-1.6-13.7c0.2-2.2-0.4-7.6-0.4-10.3c0-2.7,0.1-3.4,0-6c-0.1-2.5,0.2-7.6-0.1-11.3c-0.3-3.8,0-4.4-0.3-6.1
				c-0.3-1.8,0.6-3.5,0.8-5.7c0.3-2.2-0.1-3.2-0.5-4.6c-0.4-1.4-0.2-3.5,0-5.1c0.2-1.6,0.6-2.7,1.2-5c0.4-1.4,0.3-3.2,0.2-4.6
				c-0.1-2.1,0.1-3.2,0.5-5.3c0.4-2.3,0.3-2.8-0.1-5.6c-0.3-2.2-0.9-3.3,0.6-5.1c0.7-0.9,0.5-1.2,0.8-3.9c0.3-2.7,0.4-2.9,1.2-4.3
				c0.8-1.4,1.3-1.7,1.6-2.4c0.3-0.7,0.5-1.7,0.5-2.4c0-0.5,0.1-1,0.2-1.2c-0.2-0.6,0-1.1,0.1-1.5c0.1-0.5,0.4-2,0.6-3.6
				c0.2-1.6,0.8-3.5,0.8-3.5c1-1.2,2-1.5,10.1-1.5c8.1,0,25.6-0.8,34.6-1c5.6-0.1,11.3-0.1,16.9,0c9.1,0.2,26.6,1,34.6,1
				c8.1,0,9.1,0.3,10.1,1.5c0,0,0.6,1.9,0.8,3.5c0.2,1.6,0.5,3.2,0.6,3.6c0.1,0.5,0.3,1,0.1,1.5c0.1,0.2,0.2,0.7,0.2,1.2
				c0,0.7,0.2,1.7,0.5,2.4c0.3,0.7,0.8,1,1.6,2.4c0.8,1.4,0.9,1.6,1.2,4.3c0.3,2.7,0,3,0.8,3.9c1.3,1.6,0.9,2.2,0.7,4.1
				c-0.3,2.8-0.6,4.3-0.1,7.2c0.4,2.1,0.5,2.8,0.3,4.9c-0.1,1.4-0.1,3,0.2,4.3c0.6,2.4,1,3.4,1.2,5c0.2,1.6,0.4,3.7,0,5.1
				c-0.4,1.4-0.8,2.4-0.5,4.6c0.3,2.2,1.1,3.9,0.8,5.7c-0.3,1.8,0,2.4-0.3,6.1c-0.3,3.8,0,8.8-0.1,11.3c-0.1,2.5,0,3.3,0,6
				c0,2.7-1.3,7.6-1.5,9.8c-0.2,3-1.3,9.8-1.5,12.8c-0.2,2.7-0.2,5.5-0.2,8.3C495.7,594.4,495.7,595.6,495.3,597.2z"/>
			<path class="st21" d="M462,738.8c-1.4-0.3-2.2-0.5-2.9-0.8c-1.4-0.7-1.5-1.9-1.5-3.4c0-1.6,0-8,0.2-9.9c0.1-0.9,0.6-1.2,1.2-1.3
				c-1.5-10.6-2.8-31-0.6-36.9c1.4-3.8,2.1-5.2,1-8.1c-1.1-2.9-0.6-3.4-0.3-7.1c0.3-3.6,0.5-4.9-0.5-9.2c-1-4.4-0.3-10.1,0.1-11.7
				c0.4-1.6,1-3.8-0.3-6.4c-1.3-2.7-1.5-6.9-0.8-9.3c0.6-2.4,1.1-4.2-0.3-6.3c-1.4-2.1-1.2-3.7,0.1-5.7c1.3-2-1.8-7.5-4.2-13.7
				c-1.4-3.5-1.5-6.5-1.3-9.3c0.4-4.7-1.2-6.9-1.6-13.2c-0.2-3.3-0.6-4.1-0.6-5.4c0-1.8-1.9-8.5-2.3-9.8c-0.8-2.5-1.5-6.7-2.1-8.3
				c-0.5-1.6-1.1-5.6-1.6-7.1c-0.5-1.6-1.2-4.6-1.7-5.5c-0.5-0.9-0.8-1.9-1.1-2.1c-0.3-0.3-0.4-0.5-1-0.5c-1.6,0-3.2,0-4.8,0
				c-0.6,0-0.7,0.3-1,0.5c-0.3,0.3-0.7,1.3-1.1,2.1c-0.5,0.9-1.2,3.9-1.7,5.5c-0.5,1.6-1,5.6-1.6,7.1c-0.5,1.6-1.3,5.8-2.1,8.3
				c-0.6,1.9-1.2,7.2-1.2,9.8c0,2.7-0.7,7.1-1.9,9.6c-1,2-2.1,4.2-2.1,7.5c0,3.2-1,6.7-2.6,10.9c-2.4,6.2-3.4,11.7-2,13.7
				c1.3,2,1.5,3.6,0.1,5.7c-1.4,2.1-1,3.9-0.3,6.3c0.6,2.4,0.4,6.7-0.8,9.3c-1.3,2.7-0.6,4.8-0.3,6.4c0.4,1.6,1.1,7.4,0.1,11.7
				c-1,4.4-0.8,5.6-0.5,9.2c0.3,3.6,0.9,4.2-0.3,7.1c-1.1,2.9-0.4,4.3,1,8.1c2.5,6.7,0.5,29.6-0.6,36.9c0.6,0.1,1.1,0.4,1.2,1.3
				c0.1,2,0.1,8.3,0.2,9.9c0,1.6-0.1,2.7-1.5,3.4c-0.6,0.3-1.4,0.5-2.7,0.8c0.2-2.6,0.2-6.3,0.1-8.3c-0.1-1.7-0.4-4.8-2-5.8
				c2.4-7.3,1.5-24.9,1.3-32.7c-0.2-7.9-1.7-6.1-1-11c0.7-5,0.8-7.5,0.1-10.8c-0.7-3.3,0.6-6.6,0.5-11c-0.1-4.5-0.8-4.5-2.4-3.6
				c-1.7,0.9-2.9-0.5-0.8-4.9c2.1-4.4,3-5.7,3.7-9.7c0.8-4,1.5-6.3-1-5.1c-2.4,1.2-4.9,1.1-2.9-2c2.1-3.1,3.9-3.6,4.6-6.4
				c0.8-2.8,1.6-2.4-0.9-3.6c-2.5-1.2-2.7-2.8-0.8-4c1.9-1.3,3-4.5,3.1-7.6c0.1-2.4-0.6-2.6-1.9-2.8c-6-0.8,0-7.7,2.2-10.1
				c1.2-1.3,2.5-3,3.5-6.5c1.2-4.1,1.3-7.4-2.9-2.1c-3.2,4-1.8-0.2,1.4-7.3c1-2.1,2.2-4.1,3.2-6.3c4.2-9.6,6.6-18.8-5.1-3.1
				c-1.3,1.8-2.5,3.4-3.5,4.6c-2.1,2.7-2.1,2.2-0.7-0.4c0.4-0.8,0.9-1.8,1.6-3c9.7-17.7,28.6-28.5,6.4-23.2
				c-8.6,2.1-6.9,0.5-1.1-1.9c5-2.1,9.1-3.1,10.5-4c1.7-1.1,2-1.5-0.8-1.9c-7.4-1.1,0.4-2.9,3.3-2.9c8-0.1,24.9-0.3,16.3,1.5
				c-3.9,0.8-3.5,2.3,0.6,3.9c1.8,0.7,4.7,1.5,7.6,2.2c7.1,1.7,3.4,3.4-3.8,0.9c-4.1-1.4-5.2-2.2-2,2.5c4.6,6.8,11.1,16.9,14,20.5
				c2.1,2.5,0.8,3.2-1.9,1.9c-3.1-1.5-12.8-10.2-8.2,0.4c2,4.6,4.4,9.4,7.4,13.4c2.5,3.4,3.3,7.1-1.9,1.5c-6.8-7.3-6.6-3.8-4.8,1
				c3.2,8.2,5.2,7.2,8.8,12.7c1.6,2.4,2.4,5.1-0.5,5.7c-2,0.4-3.3-0.2-3.2,3c0.1,3.1,1.2,6.3,3.1,7.6c1.9,1.3,1.7,2.9-0.8,4
				c-2.5,1.2-1.7,0.8-0.9,3.6c0.8,2.8,2.6,3.2,4.6,6.4c2.1,3.1-0.5,3.2-2.9,2c-2.4-1.2-1.7,1.2-1,5.1c0.8,4,1.6,5.3,3.7,9.7
				c2.1,4.4,0.9,5.8-0.8,4.9c-1.7-0.9-2.3-0.8-2.4,3.6c-0.1,4.5,1.2,7.8,0.5,11c-0.7,3.3-0.6,5.8,0.1,10.8c0.7,5-0.8,3.2-1,11
				c-0.2,7.8-1.1,25.4,1.3,32.7c-1.5,1-1.8,4.1-2,5.8C461.7,731.9,461.9,735.8,462,738.8z"/>
			<g>
				<path class="st22" d="M459,723.4c-0.6,0.1-1.1,0.4-1.2,1.3c-0.1,2-0.1,8.3-0.2,9.9c0,1.6,0.1,2.7,1.5,3.4c1.4,0.7,3.6,1,9.6,2
					c6,1,8.8,0.6,13.6,0.3c4.8-0.3,8-1.3,9.1-1.9c1.1-0.6,1.3-0.9,1.3-2.4c0-1.6,0-4.5-0.2-8.1c-0.1-1.4-0.1-2.4-0.2-3.2
					c-0.1-1-0.4-1.6-0.9-1.8c0,0-0.9,0.8-2.4,1.6c-1,0.5-4.2,0.9-6.7,1.1c-3.1,0.3-6.1,0.2-9.2,0.2c-4.1,0-8.5,0-12.4-1.3
					C459.7,724,459,723.4,459,723.4z"/>
				<path class="st20" d="M490.8,738.7c0-0.4,0.1-1.4,0.1-2c0-2.8-0.1-6.7-0.1-7.1c-0.1-1.3-0.2-4-0.3-4.7c-0.1-0.7-0.3-1.1-0.8-1.1
					c0.2-0.1,0.4-0.3,0.6-0.4c0.2,0.1,0.6,0.3,0.7,0.8c0.1,0.6,0.2,3.7,0.3,4.7c0,0.5,0.1,7,0.1,9.6
					C491.2,738.5,491,738.6,490.8,738.7z"/>
				<path class="st23" d="M458.9,722.4c0,0.4,0.1,0.7,0.1,1c0,0,0.7,0.6,1.9,1.1c3.9,1.3,8.3,1.3,12.4,1.3c3.1,0,6.1,0.1,9.2-0.2
					c2.5-0.2,5.8-0.6,6.7-1.1c1.5-0.7,2.4-1.6,2.4-1.6l0.2-1.1c-0.5,0.4-1.6,1.1-2.6,1.5c-1.3,0.5-2.4,0.9-4.3,1.1
					c-1.9,0.2-4.9,0.5-7.5,0.5c-2.6,0-5.7,0-7.9-0.1c-2.2-0.1-4.3-0.3-6.5-0.8C461.3,723.6,459.9,723,458.9,722.4z"/>
				<path class="st20" d="M459,723.4c-0.6,0.1-1.1,0.4-1.2,1.3c-0.1,2-0.1,8.3-0.2,9.9c0,1.6,0.1,2.7,1.5,3.4
					c0.7,0.3,1.6,0.6,3.1,0.9c-0.3-2.5-0.1-5.9,0.1-8.5c0.1-1.3,0.4-2.2,1.6-1.8c2,0.7,2.7,0.3,4.7-0.1c0.7-0.1,1.5-0.2,2.9-0.1
					c2.7,0.2,2.8,1.2,5,0.7c2.2-0.5,3.1-0.3,5.5,0.4c2.4,0.7,2.2-0.6,3.3-1c1.1-0.4,1.5-1.1,3-1.1c1.6,0,1.8,0.3,2.5-0.1
					c0.5-0.3,1.1-0.6,1.7-1.1c0-0.6,0-1.1-0.1-1.5v0c-0.6,0.6-1.5,1.3-2.9,1.7c-2.8,0.7-4.1,0.3-8.1,0.6c-4.1,0.2-7.2,0.4-11.9,0.1
					c-3.9-0.2-5.4-0.3-6.8-0.6c0.1-0.5,0.3-0.9,0.7-1.2c-0.8-0.2-1.6-0.4-2.4-0.6C459.7,724,459,723.4,459,723.4z"/>
				<path class="st23" d="M460.5,738.5c0-0.7-0.1-1.9-0.1-2.9c-0.1-2.7-0.2-5.6-0.1-6c0.1-1.3,0.2-3.8,0.2-4.5
					c0.1-0.7,0.3-1.2,0.7-1.1c-0.2-0.1-0.4-0.3-0.6-0.4c-0.2,0.1-0.6,0.3-0.7,0.8c-0.1,0.6-0.1,3.7-0.1,4.7c0,0.5,0.1,6.5,0.2,9.2
					C460.1,738.4,460.3,738.4,460.5,738.5z"/>
			</g>
			<g>
				<path class="st22" d="M416.6,723.4c0.6,0.1,1.1,0.4,1.2,1.3c0.1,2,0.1,8.3,0.2,9.9c0,1.6-0.1,2.7-1.5,3.4c-1.4,0.7-3.6,1-9.6,2
					c-6,1-8.8,0.6-13.6,0.3s-8-1.3-9.1-1.9s-1.3-0.9-1.3-2.4c0-1.6,0-4.5,0.2-8.1c0.1-1.4,0.1-2.4,0.2-3.2c0.1-1,0.4-1.6,0.9-1.8
					c0,0,0.9,0.8,2.4,1.6c1,0.5,4.2,0.9,6.7,1.1c3.1,0.3,6.1,0.2,9.2,0.2c4.1,0,8.5,0,12.4-1.3C415.9,724,416.6,723.4,416.6,723.4z"
					/>
				<path class="st20" d="M416.6,723.4c0.6,0.1,1.1,0.4,1.2,1.3c0.1,2,0.1,8.3,0.2,9.9c0,1.6-0.1,2.7-1.5,3.4
					c-0.7,0.3-1.6,0.6-3.1,0.9c0.3-2.5,0.1-5.9,0-8.5c-0.1-1.3-0.4-2.2-1.6-1.8c-2,0.7-2.7,0.3-4.7-0.1c-0.7-0.1-1.5-0.2-2.9-0.1
					c-2.7,0.2-2.8,1.2-5,0.7c-2.2-0.5-3.1-0.3-5.5,0.4c-2.4,0.7-2.2-0.6-3.3-1c-1.1-0.4-1.5-1.1-3-1.1c-1.6,0-1.8,0.3-2.5-0.1
					c-0.5-0.3-1.1-0.6-1.7-1.1c0-0.6,0-1.1,0.1-1.5l0,0c0.6,0.6,1.5,1.3,2.9,1.7c2.8,0.7,4.1,0.3,8.1,0.6c4.1,0.2,7.2,0.4,11.9,0.1
					c3.9-0.2,5.4-0.3,6.8-0.6c-0.1-0.5-0.3-0.9-0.7-1.2c0.8-0.2,1.6-0.4,2.4-0.6C415.9,724,416.6,723.4,416.6,723.4z"/>
				<path class="st23" d="M415.1,738.5c0-0.7,0.1-1.9,0.1-2.9c0.1-2.7,0.2-5.6,0.1-6c-0.1-1.3-0.2-3.8-0.2-4.5
					c0-0.7-0.3-1.2-0.7-1.1c0.2-0.1,0.4-0.3,0.6-0.4c0.2,0.1,0.6,0.3,0.7,0.8c0.1,0.6,0.1,3.7,0.1,4.7c0,0.5-0.1,6.5-0.2,9.2
					C415.5,738.4,415.3,738.4,415.1,738.5z"/>
				<path class="st20" d="M384.7,738.7c0-0.4-0.1-1.4-0.1-2c0-2.8,0.1-6.7,0.2-7.1c0.1-1.3,0.2-4,0.3-4.7c0.1-0.7,0.3-1.1,0.8-1.1
					c-0.2-0.1-0.4-0.3-0.6-0.4c-0.2,0.1-0.6,0.3-0.7,0.8c-0.1,0.6-0.2,3.7-0.3,4.7c0,0.5-0.1,7-0.1,9.6
					C384.3,738.5,384.5,738.6,384.7,738.7z"/>
				<path class="st23" d="M416.7,722.4c0,0.4-0.1,0.7-0.1,1c0,0-0.7,0.6-1.9,1.1c-3.9,1.3-8.3,1.3-12.4,1.3c-3.1,0-6.1,0.1-9.2-0.2
					c-2.5-0.2-5.8-0.6-6.7-1.1c-1.5-0.7-2.4-1.6-2.4-1.6l-0.2-1.1c0.5,0.4,1.6,1.1,2.6,1.5c1.3,0.5,2.4,0.9,4.3,1.1
					c1.9,0.2,4.9,0.5,7.5,0.5c2.6,0,5.7,0,7.9-0.1c2.2-0.1,4.3-0.3,6.5-0.8C414.3,723.6,415.7,723,416.7,722.4z"/>
			</g>
			<path class="st21" d="M431.4,472c-1,0-2,0-2.9,0c-0.3,1.5-0.7,3.8-0.7,4.6c-0.1,1.4,0,6.4-0.1,7.4c-0.1,1-0.4,3.7-0.4,3.7
				l3.1-0.2c0,0,0.4-0.9,0.6-2.2c0.2-1.3,0.5-4.5,0.6-5.7c0.1-1.3,0-3.8,0-5C431.7,473.8,431.5,472.7,431.4,472z"/>
			<path class="st21" d="M383.1,483.4c-0.1,0.2-0.1,0.6-0.1,1c0,0.1,0,0.2,0,0.3c2.7,0.1,7.4,0.2,9.1,0c2.4-0.3,5-0.5,7.3-0.6
				c2.2-0.1,3.2,0,5.5-0.2c2.3-0.3,7.8-0.6,10.3-0.6c2.4,0,3.9,0.3,6,0.3c2.1,0,4.1-0.1,7-0.3c2.9-0.2,5.4-0.3,7.1-0.3
				c1.8,0,3.4,0,5.2,0c1.7,0,4.2,0.1,7.1,0.3c2.9,0.2,4.9,0.3,7,0.3c2.1,0,3.6-0.3,6-0.3c2.4,0,7.9,0.4,10.3,0.6
				c2.3,0.3,3.3,0.1,5.5,0.2c2.2,0.1,4.9,0.3,7.3,0.6c1.7,0.2,6.4,0.1,9.1,0c0-0.1,0-0.2,0-0.3c0-0.4-0.1-0.8-0.1-1
				c-2.7,0-8.2-0.1-9.8-0.1c-2.2-0.1-7.6-0.7-9.5-0.7c-1.9-0.1-7.7-0.4-10.2-0.5c-2.5-0.2-8.2-0.1-10,0c-1.8,0.1-5.6-0.1-6.5-0.1
				c-5.8,0-11.5,0-17.3,0c-0.9,0-4.6,0.1-6.5,0.1c-1.8-0.1-7.5-0.2-10,0c-2.5,0.2-8.3,0.5-10.2,0.5c-1.9,0.1-7.4,0.6-9.5,0.7
				C391.3,483.4,385.8,483.4,383.1,483.4z"/>
			<path class="st23" d="M378.6,498c-0.2,0.3-0.3,0.5-0.4,0.8c2.6-1.4,7.5-1.6,9.4-1.6c6.8,0,13.9-0.3,20.6,0.5
				c6.7,0.7,13.5,0.7,20.2,1c2,0.1,4.3,0.4,6.2,0.4c1,0,2,0,3,0c1,0,2,0,3,0c2,0,4.2-0.3,6.2-0.4c6.7-0.3,13.5-0.3,20.2-1
				c6.7-0.7,13.9-0.5,20.6-0.5c1.9,0,6.8,0.2,9.4,1.6c-0.1-0.2-0.2-0.5-0.4-0.8c-2.6-1.2-7.2-1.4-9-1.4c-6.8,0-13.9-0.3-20.6,0.5
				c-6.7,0.7-13.5,0.7-20.2,1c-2,0.1-4.3,0.4-6.2,0.4c-1,0-2,0-3,0c-1,0-2,0-3,0c-2,0-4.2-0.3-6.2-0.4c-6.7-0.3-13.6-0.3-20.2-1
				c-6.7-0.7-13.9-0.5-20.6-0.5C385.8,496.6,381.3,496.8,378.6,498z"/>
			<path class="st23" d="M379.7,494.7l0,0.7c1-0.7,3.5-1.8,9.2-1.8c8.4,0,14.4-0.2,20.1,0.5c5.7,0.6,15.7,0.8,19.8,1.1
				c4.1,0.2,4.8,0.4,6.1,0.4c0.6,0,1.8,0,3,0c1.2,0,2.4,0,3,0c1.3,0,2.1-0.2,6.1-0.4c4.1-0.2,14.1-0.4,19.8-1.1
				c5.7-0.6,11.6-0.5,20.1-0.5c5.6,0,8.1,1.1,9.2,1.8l0-0.7c-1.1-0.7-3.6-1.8-9.1-1.8c-8.4,0-14.4-0.2-20.1,0.5
				c-5.7,0.6-15.7,0.8-19.8,1.1c-4.1,0.2-4.8,0.4-6.1,0.4c-0.6,0-1.8,0-3,0c-1.2,0-2.4,0-3,0c-1.3,0-2.1-0.2-6.1-0.4
				c-4.1-0.2-14.1-0.4-19.8-1.1c-5.7-0.6-11.6-0.5-20.1-0.5C383.3,492.9,380.8,494,379.7,494.7z"/>
			<path class="st21" d="M490.4,474c-0.6-0.4-1.5-0.7-3.4-0.8c-0.6,1-0.8,2.7-0.9,3.8c-0.3,3-1,6.9-1.1,9.8c-0.1,2.4,2.8,6.5,5,2.8
				c1-1.8,0.8-5.4,0.8-5.4s0-0.7-0.1-1.9c-0.1-1.1-0.1-1.5-0.2-4.3C490.4,476.6,490.4,475.1,490.4,474z"/>
			<path class="st21" d="M388.6,473.2c-2,0.1-2.8,0.4-3.4,0.8c0,1.1,0,2.6-0.1,4.1c-0.1,2.8-0.1,3.2-0.2,4.3
				c-0.1,1.1-0.1,1.9-0.1,1.9s-0.2,3.6,0.8,5.4c2.1,3.7,5.1-0.4,5-2.8c-0.2-3-0.8-6.8-1.1-9.8C389.4,475.9,389.2,474.2,388.6,473.2z
				"/>
			<path class="st21" d="M384.3,475.4c0,0.2-0.1,0.4-0.1,0.6c2.2-0.5,4.5-0.8,6.8-0.8c3.7-0.1,7.4-0.3,11.2-0.4
				c6-0.1,12.1-0.5,18.1-0.5c5.2,0,10.4-0.4,15.6-0.3c1.3,0,2.6,0,3.9,0c5.2-0.1,10.4,0.3,15.6,0.3c6,0,12.1,0.3,18.1,0.5
				c3.7,0.1,7.4,0.3,11.2,0.4c2.2,0.1,4.6,0.4,6.8,0.8c0-0.2-0.1-0.4-0.1-0.6c-1-0.2-3.9-0.7-6.6-0.8c-3.3-0.1-7.4-0.3-11.2-0.4
				c-3.8-0.1-15.5-0.5-18.2-0.5c-2.6,0-12.4-0.4-15.6-0.3c-1.3,0-2.6,0-3.9,0c-3.2,0-13,0.3-15.6,0.3c-2.6,0-14.3,0.4-18.2,0.5
				c-3.8,0.1-7.9,0.3-11.2,0.4C388.3,474.6,385.4,475.2,384.3,475.4z"/>
			<path class="st21" d="M383.2,482c0,0.1-0.1,0.3-0.1,0.4c1.2,0,3.2-0.1,4.9-0.1c2.5-0.1,7.1-0.5,11.4-0.8
				c4.3-0.2,12.7-0.6,17.1-0.6c4.4,0,11.2-0.2,14.9,0c4.1,0.2,8.7,0.2,12.8,0c3.7-0.2,10.5,0,14.9,0c4.4,0,12.8,0.4,17.1,0.6
				c4.3,0.2,8.9,0.7,11.4,0.8c1.7,0.1,3.7,0.1,4.9,0.1c0-0.1-0.1-0.3-0.1-0.4c-1.6,0-3.2-0.1-4.8-0.1c-3.8-0.1-7.6-0.6-11.4-0.8
				c-5.7-0.3-11.5-0.6-17.1-0.6c-4.9,0-10-0.3-14.9,0c-4.1,0.2-8.7,0.2-12.8,0c-4.9-0.2-10,0-14.9,0c-5.7,0-11.5,0.3-17.1,0.6
				c-3.8,0.2-7.6,0.6-11.4,0.8C386.4,482,384.8,482,383.2,482z"/>
			<path class="st23" d="M383.2,483.2c0,0.1-0.1,0.3-0.1,0.6l0.1,0c2.3,0,4.6-0.1,6.8-0.1c2.6,0.1,5.4-0.5,8-0.5
				c2.4-0.1,4.9-0.5,7.4-0.5c3.2,0,6.5-0.4,9.6-0.4c4.3,0,8.7,0.1,13,0.1c6.7-0.1,12.8-0.1,19.6,0c4.3,0.1,8.7-0.1,13-0.1
				c3.2,0,6.5,0.4,9.6,0.4c2.4,0,4.9,0.4,7.4,0.5c2.6,0.1,5.5,0.6,8,0.5c2.2,0,4.6,0,6.8,0.1l0.1,0c0-0.3-0.1-0.5-0.1-0.6
				c0,0-5.8-0.1-6.8-0.1c-1,0-7.3-0.5-8-0.5c-0.7,0-6.1-0.5-7.4-0.5c-1.2,0-8.4-0.4-9.6-0.4c-1.2,0-11.6,0.1-13,0.1
				c-6.7-0.1-12.9-0.1-19.6,0c-1.4,0-11.8-0.1-13-0.1c-1.2,0-8.4,0.4-9.6,0.4c-1.2,0-6.7,0.4-7.4,0.5c-0.7,0-7,0.6-8,0.5
				C389,483.1,383.2,483.2,383.2,483.2z"/>
			<g>
				<path class="st23" d="M426.7,488.4c-1,0-1.3-0.5-1.2-1.4c0-1.2,0.1-2.5,0.1-3.7c0-1.9,0.3-4.1,0.4-6c0.1-1.5,0.2-3,0.4-4.4
					c0.1-0.9,0.2-1.4,1.3-1.5c0.8-0.1,1.5,0,2.3-0.1c0.9,0,1.2,0.5,1.2,1.3c0,0.9,0,1.7-0.1,2.6c-0.2,2.8-0.1,5.7-0.4,8.6
					c-0.1,1.1-0.1,2.2-0.1,3.3c0,0.8-0.3,1.1-1.1,1.2C428.5,488.3,427.6,488.4,426.7,488.4z"/>
				<path class="st20" d="M426.7,487.8c-0.7,0-0.6-0.3-0.6-0.7c0-0.9,0.1-3,0.1-3.7c0-0.9,0.4-4.9,0.4-5.9c0.1-1,0.3-3.8,0.4-4.4
					c0.1-0.7,0-0.9,0.7-1c0.6-0.1,1.8-0.1,2.2-0.1c0.5,0,0.5,0.2,0.5,0.7c0,0.5,0,2-0.1,2.6c0,0.6-0.2,6.7-0.4,8.6
					c-0.1,1.1-0.1,2.2-0.1,3.3c0,0.5,0,0.5-0.5,0.5C428.5,487.7,427.5,487.8,426.7,487.8z"/>
				<path class="st21" d="M426.1,486.7l0-0.9l3.8-0.1c0,0.3,0,0.6,0,0.9c-0.2,0-0.4,0-0.7,0c-0.7,0-1.2,0.1-2,0.1
					C426.6,486.7,426.3,486.7,426.1,486.7z"/>
				<path class="st21" d="M426.8,474.2l0.1-0.8l3.5,0l0,0.8c-0.2,0-0.4,0-0.6-0.1c-0.5-0.2-0.6-0.2-1.2,0
					C428.1,474.4,427.3,474.4,426.8,474.2z"/>
				<polygon class="st23" points="425.7,485.3 430.1,485.2 430.2,486.1 425.8,486.1 				"/>
				<polygon class="st23" points="426.5,473.2 430.6,473.2 430.7,473.8 426.5,473.8 				"/>
			</g>
			<path class="st21" d="M444.2,472c1,0,2,0,2.9,0c0.3,1.5,0.7,3.8,0.7,4.6c0.1,1.4,0,6.4,0.1,7.4c0.1,1,0.4,3.7,0.4,3.7l-3.1-0.2
				c0,0-0.4-0.9-0.6-2.2c-0.2-1.3-0.5-4.5-0.6-5.7c-0.1-1.3,0-3.8,0-5C443.9,473.8,444,472.7,444.2,472z"/>
			<path class="st23" d="M439.6,547.6c-0.1-2.6-0.2-5.4,0-7.9c0.1-2.4,0.1-4.9,0-7.3c0-2.5-0.1-4.9-0.1-7.4c-0.1-3.6,0-7.2,0-10.8
				c0-3.4,0-6.9,0.1-10.3c0.1-5.5-0.1-10.9,0-16.4c0-1.8,0-3.7,0.1-5.5l-0.6,0c0,0-0.1,2.3-0.1,5.5c0,3.2,0.1,12.7,0,16.4
				c-0.1,3.7-0.1,18.6,0,21.1c0.1,2.5,0.2,12,0.1,14.6c-0.1,1.8,0,5.7,0,8H439.6z"/>
			<path class="st23" d="M436.4,547.6c-0.1-2.6-0.1-5.4,0-7.9c0.1-2.4,0.1-4.9,0-7.3c0-2.5,0-4.9-0.1-7.4c-0.1-3.6,0-7.2,0-10.8
				c0-3.4,0-6.9,0.1-10.3c0.1-5.5-0.1-10.9,0-16.4c0-1.8,0-3.7,0.1-5.5l-0.5,0c0,0-0.1,2.3-0.1,5.5c0,3.2,0.1,12.7,0,16.4
				c-0.1,3.7-0.1,18.6-0.1,21.1c0,2.5,0.2,12,0.1,14.6c-0.1,1.8,0,5.7,0,8H436.4z"/>
			<g>
				<path class="st23" d="M492,489.1c0.3-1.2,0.5-2.7,0.6-3.9c0.2-2.2,0.2-4.8,0-7c-0.1-0.9-0.4-2.3-0.6-3.2c0-0.2,0-0.5,0-0.7
					c0-1-0.8-1.1-1.5-1.2c-0.7-0.1-1.5-0.2-2.2-0.3c-0.7,0-1.5-0.2-1.6,0.9c0,0.4,0,1.1,0.1,1.4c0.2,0.9,0.3,2,0.4,3
					c0.2,2,0.3,4.5,0.1,6.5c-0.2,1.7-0.4,3.3-0.6,5l0,0v0c0,0.3,0,0.7,0.1,1c0.1,0.9,0.6,1.3,1.5,1.2c1-0.1,2-0.1,3-0.2
					c0.8-0.1,1.2-0.4,1.1-1.3C492.2,489.9,492.1,489.4,492,489.1z"/>
				<path class="st20" d="M488.2,491.1c-0.6,0.1-0.7-0.1-0.8-0.7c0-0.4,0-0.9,0-0.9s0.4-3.4,0.6-5c0.2-1.6,0.1-4.5-0.1-6.6
					c-0.2-2.1-0.4-3.1-0.4-3.1s-0.2-0.7-0.1-1.2c0.1-0.6,0.4-0.3,0.9-0.3c0.5,0,1.9,0.2,2.2,0.3c0.5,0.1,1,0,1,0.5
					c0,0.3,0,0.7,0,0.7s0.5,2.2,0.6,3.2c0.1,1.1,0.2,4.3,0,6.9c-0.2,2.7-0.6,4-0.6,4s0.3,0.8,0.3,1.3c0.1,0.5,0,0.5-0.5,0.5
					C490.6,491,488.2,491.1,488.2,491.1z"/>
				<path class="st21" d="M487.4,490.7c0-0.1,0-0.2,0-0.2c0-0.4,0-0.9,0-0.9l4-0.4c0,0.1,0.2,0.7,0.3,1.1c-0.2,0.1-0.5,0.1-0.8,0.1
					c-1.3,0-2.2,0.2-2.7,0.4C487.9,490.7,487.7,490.7,487.4,490.7z"/>
				<path class="st21" d="M487.6,476c-0.1-0.7-0.2-1.1-0.2-1.1l0-0.1c0.8,0,2.7,0.1,3.9,0.1c0,0.2,0.2,0.8,0.3,1.5
					c-0.1,0-0.1,0-0.2,0c-1.1-0.3-1.6-0.7-2.3-0.4C488.8,476.1,488.2,476.1,487.6,476z"/>
				
					<rect x="486.9" y="488.9" transform="matrix(0.9934 -0.1151 0.1151 0.9934 -53.0524 59.5531)" class="st23" width="4.8" height="0.8"/>
				<polygon class="st23" points="491.7,474.7 487,474.5 486.9,475.2 491.7,475.3 				"/>
			</g>
			<g>
				<path class="st23" d="M383.6,489.1c-0.3-1.2-0.5-2.7-0.6-3.9c-0.2-2.2-0.2-4.8,0-7c0.1-0.9,0.4-2.3,0.6-3.2c0-0.2,0-0.5,0-0.7
					c0-1,0.8-1.1,1.5-1.2c0.7-0.1,1.5-0.2,2.2-0.3c0.7,0,1.5-0.2,1.6,0.9c0,0.4,0,1.1-0.1,1.4c-0.2,0.9-0.3,2-0.4,3
					c-0.2,2-0.3,4.5-0.1,6.5c0.2,1.7,0.4,3.3,0.6,5l0,0v0c0,0.3,0,0.7-0.1,1c-0.1,0.9-0.6,1.3-1.5,1.2c-1-0.1-2-0.1-3-0.2
					c-0.8-0.1-1.2-0.4-1.1-1.3C383.4,489.9,383.5,489.4,383.6,489.1z"/>
				<path class="st20" d="M387.4,491.1c0.6,0.1,0.7-0.1,0.8-0.7c0-0.4,0-0.9,0-0.9s-0.4-3.4-0.6-5c-0.2-1.6-0.1-4.5,0.1-6.6
					c0.2-2.1,0.4-3.1,0.4-3.1s0.2-0.7,0.1-1.2c-0.1-0.6-0.4-0.3-0.9-0.3c-0.5,0-1.9,0.2-2.2,0.3c-0.5,0.1-1,0-1,0.5
					c0,0.3,0,0.7,0,0.7s-0.5,2.2-0.6,3.2c-0.1,1.1-0.2,4.3,0,6.9c0.2,2.7,0.6,4,0.6,4s-0.3,0.8-0.3,1.3c-0.1,0.5,0,0.5,0.5,0.5
					C384.9,491,387.4,491.1,387.4,491.1z"/>
				<path class="st21" d="M388.2,490.7c0-0.1,0-0.2,0-0.2c0-0.4,0-0.9,0-0.9l-4-0.4c0,0.1-0.2,0.7-0.3,1.1c0.2,0.1,0.5,0.1,0.8,0.1
					c1.3,0,2.2,0.2,2.7,0.4C387.7,490.7,387.9,490.7,388.2,490.7z"/>
				<path class="st21" d="M388,476c0.1-0.7,0.2-1.1,0.2-1.1l0-0.1c-0.8,0-2.7,0.1-3.9,0.1c0,0.2-0.2,0.8-0.3,1.5c0.1,0,0.1,0,0.2,0
					c1.1-0.3,1.6-0.7,2.3-0.4C386.8,476.1,387.4,476.1,388,476z"/>
				
					<rect x="385.8" y="486.9" transform="matrix(0.1151 -0.9934 0.9934 0.1151 -144.2508 816.6916)" class="st23" width="0.8" height="4.8"/>
				<polygon class="st23" points="383.8,474.7 388.6,474.5 388.6,475.2 383.9,475.3 				"/>
			</g>
			<g>
				<path class="st23" d="M448.9,488.4c1,0,1.3-0.5,1.2-1.4c0-1.2-0.1-2.5-0.1-3.7c0-1.9-0.3-4.1-0.4-6c-0.1-1.5-0.2-3-0.4-4.4
					c-0.1-0.9-0.2-1.4-1.3-1.5c-0.8-0.1-1.5,0-2.3-0.1c-0.9,0-1.2,0.5-1.2,1.3c0,0.9,0,1.7,0.1,2.6c0.2,2.8,0.1,5.7,0.4,8.6
					c0.1,1.1,0.1,2.2,0.1,3.3c0,0.8,0.3,1.1,1.1,1.2C447.1,488.3,448,488.4,448.9,488.4z"/>
				<path class="st20" d="M448.9,487.8c0.7,0,0.6-0.3,0.6-0.7c0-0.9-0.1-3-0.1-3.7c0-0.9-0.4-4.9-0.4-5.9c-0.1-1-0.3-3.8-0.4-4.4
					c-0.1-0.7,0-0.9-0.7-1c-0.6-0.1-1.8-0.1-2.2-0.1c-0.5,0-0.5,0.2-0.5,0.7c0,0.5,0,2,0.1,2.6c0,0.6,0.2,6.7,0.4,8.6
					c0.1,1.1,0.1,2.2,0.1,3.3c0,0.5,0,0.5,0.5,0.5C447,487.7,448.1,487.8,448.9,487.8z"/>
				<path class="st21" d="M449.5,486.7l0-0.9l-3.8-0.1c0,0.3,0,0.6,0,0.9c0.2,0,0.4,0,0.7,0c0.7,0,1.2,0.1,2,0.1
					C448.9,486.7,449.3,486.7,449.5,486.7z"/>
				<path class="st21" d="M448.7,474.2l-0.1-0.8l-3.5,0l0,0.8c0.2,0,0.4,0,0.6-0.1c0.5-0.2,0.6-0.2,1.2,0
					C447.4,474.4,448.3,474.4,448.7,474.2z"/>
				<polygon class="st23" points="449.8,485.3 445.4,485.2 445.4,486.1 449.8,486.1 				"/>
				<polygon class="st23" points="449,473.2 444.9,473.2 444.9,473.8 449,473.8 				"/>
			</g>
			<g>
				<path class="st21" d="M383.2,505.2c0,0,2.4-0.5,6.6-0.6c4.2-0.1,6.9-0.3,10.8-0.3c3.9,0,4.4,0.2,9.3,0.1
					c4.9-0.1,12.1,0.4,12.1,0.4s-0.2,1.8-7.6,1.8c-7.5,0.1-13.5,0-19.5-0.1C389,506.5,383.2,505.2,383.2,505.2z"/>
				<path class="st23" d="M381.7,506.6c0-1.5,0.6-1.4,1.9-1.4c3.8,0,7.7,0.1,11.6,0c4.1-0.1,8.1-0.2,12.2-0.3c2.7,0,5.5-0.3,8.2-0.3
					c2.5,0,5.4,0,7.9,0.2c1.4,0.1,1.1,1.3,0.9,2.2c-0.2,1.4-0.5,2.8-0.7,4.1c-0.5,2.6-1,5.6-1.2,8.2c-0.2,2.2-0.4,4.7-0.8,6.8
					c-0.4,2.3-0.5,4.9-0.8,7.3c-0.3,1.9-0.4,3.8-0.6,5.7c-0.1,1.8-0.6,4-0.6,5.7c0,0.8-0.3,0.9-0.9,1.3c-1.5,1-3.5,1.9-5.1,2.9
					c-2.8,1.6-5.9,3.1-8.5,4.9c-1.8,1.2-5.1,2.8-7.1,3.7c-0.7,0.3-0.9,0.3-1.6,0c-0.7-0.4-1.4-0.8-2.1-1.2c-2.5-1.4-4.9-3-7.4-4.5
					c-2.2-1.3-4.4-2.9-6.5-4.3c-0.6-0.4-0.7-0.9-0.6-1.6c0.2-2.3,0.3-4.7,0.5-7c0.2-2.7,0.3-5.6,0.5-8.3c0.1-2.7,0.3-5.3,0.3-8
					c0.1-1.8,0.2-3.7,0.3-5.5c0.1-2,0.4-4.3,0.4-6.3C381.7,509.5,381.7,508,381.7,506.6z"/>
				<path class="st20" d="M382.2,506.6c0,0.9,0,3.4,0,4.3c0,1.1-0.6,9-0.7,11.8c-0.1,2.8-0.6,14.4-0.8,16.3c-0.2,2-0.4,6.5-0.5,7
					c0,0.5,0,0.8,0.4,1.1c0.4,0.3,5.4,3.7,6.4,4.3c1.1,0.7,5.9,3.7,7.3,4.5c1.4,0.8,1.7,1,2.1,1.2c0.4,0.2,0.5,0.3,1.1,0
					c0.6-0.3,5.3-2.5,7-3.6c1.7-1.1,6.7-3.9,8.6-4.9c1.8-1.1,4.6-2.5,5.1-2.8c0.5-0.3,0.6-0.3,0.6-0.9s0.5-4.7,0.6-5.7
					c0.1-1.1,0.4-4.7,0.6-5.7c0.1-1.1,0.6-6.1,0.8-7.3c0.2-1.2,0.7-5.8,0.8-6.8c0.1-1,1-6.8,1.2-8.3c0.3-1.4,0.6-3.4,0.7-4.1
					c0.1-0.8,0.4-1.5-0.4-1.5c-0.8-0.1-6.3-0.2-7.9-0.2c-1.6,0-5.5,0.2-8.2,0.3c-2.6,0-9.6,0.2-12.2,0.3c-2.6,0.1-10.5,0-11.6,0
					C382.4,505.7,382.2,505.6,382.2,506.6z"/>
				<path class="st23" d="M398.1,554.8c-0.6,0.4-0.8,0.5-1.4,0.1c-0.5-0.3-0.7-0.4-1.2-0.8c-1.8-1.5-4.7-3.3-6.8-4.6
					c-2-1.3-4-2.8-5.9-4.2c-0.7-0.5-0.7-0.9-0.6-1.7c0.4-4.5,0-9,0.5-13.6c0.5-5,0.7-10.2,1-15.2c0.2-3.1,0.3-6.1,0.5-9.2l0.5,0
					c0,0.9-0.3,5.9-0.5,9.3c-0.2,3.7-0.7,12.9-1,15.2c-0.5,4.4-0.1,9.1-0.5,13.5c-0.1,0.9,0.1,1,0.4,1.2c0.3,0.2,4.7,3.4,5.9,4.2
					c1.2,0.8,6,4,6.9,4.7c0.9,0.7,1,0.7,1.2,0.8c0.2,0.1,0.2,0.3,0.8-0.1c0.5-0.4,5.8-3,6.7-3.7c0.9-0.6,5.8-3.3,7.6-4.6
					c1.8-1.3,3.1-1.8,3.6-2.1c0.5-0.3,0.8-0.3,0.8-1.4s0.8-9.7,1-12.1c0.2-2.4,1.3-11.7,1.7-14.3c0.4-2.6,0.7-5.5,1-7.8
					c0.3-1.9,0.4-3,0.4-3.3l0.5,0c-0.1,1.1-0.3,2.2-0.4,3.3c-0.4,2.6-0.6,5.2-1,7.8c-0.7,4.6-1.4,9.7-1.7,14.3
					c-0.1,1.9-0.3,3.9-0.5,5.8c-0.2,1.9-0.5,4.3-0.5,6.3c0,1.1-0.2,1.4-1.1,1.9c-1.3,0.7-2.3,1.2-3.5,2c-2.4,1.7-5.2,3-7.6,4.6
					C402.7,552.5,400,553.4,398.1,554.8z"/>
				<path class="st23" d="M423.6,509.1c-1.9,0-3.9,0-5.8,0c-4.6,0.1-9.2,0.5-13.8,0.5c-4.5,0.1-9-0.1-13.5,0c-2.8,0.1-5.7,0-8.4,0
					l0-0.4c1.1,0,6.6,0.1,8.4,0c2,0,10.4,0,13.6,0c3.2,0,11.2-0.5,13.8-0.5c2.4-0.1,5.3,0,5.8,0L423.6,509.1z"/>
				<path class="st21" d="M384.7,535.4c0,0-0.2,6-0.2,7.4c0,1.3,0,1.3,2.7,3.3c2.7,2.1,7.1,4.6,8.8,5.2c1.7,0.5,2.5,1,5.8-1.3
					c3.3-2.3,7.7-4.7,10-6.5c2.3-1.8,2.5-2.5,1.8-3.4c-0.7-0.9-2.3-0.1-3.6,1.1c-1.3,1.2-7.9,6-10.2,7.6c-2.3,1.6-4.8-0.2-8.9-2.1
					c-4-2-5-2.9-5.4-3.5c-0.3-0.7-0.3-4.8-0.3-6.9C385.3,534.3,384.7,533.8,384.7,535.4z"/>
				<path class="st21" d="M390.2,513.2c7-0.7,14.1-1.2,20.9-0.8c9.8,0.6,8.9,2.4-0.3,2.6c-2.7,0-10-0.3-20.4,0.1
					C384,515.3,383.9,513.8,390.2,513.2z"/>
			</g>
			<g>
				<path class="st21" d="M492.3,505.2c0,0-2.4-0.5-6.6-0.6c-4.2-0.1-6.9-0.3-10.8-0.3c-3.9,0-4.4,0.2-9.3,0.1
					c-4.9-0.1-12.1,0.4-12.1,0.4s0.2,1.8,7.6,1.8c7.5,0.1,13.5,0,19.5-0.1C486.5,506.5,492.3,505.2,492.3,505.2z"/>
				<path class="st23" d="M493.9,506.6c0-1.5-0.6-1.4-1.9-1.4c-3.8,0-7.7,0.1-11.6,0c-4.1-0.1-8.1-0.2-12.2-0.3
					c-2.7,0-5.5-0.3-8.2-0.3c-2.5,0-5.4,0-7.9,0.2c-1.4,0.1-1.1,1.3-0.9,2.2c0.2,1.4,0.5,2.8,0.7,4.1c0.5,2.6,1,5.6,1.2,8.2
					c0.2,2.2,0.4,4.7,0.8,6.8c0.4,2.3,0.5,4.9,0.8,7.3c0.3,1.9,0.4,3.8,0.6,5.7c0.1,1.8,0.6,4,0.6,5.7c0,0.8,0.3,0.9,0.9,1.3
					c1.5,1,3.5,1.9,5.1,2.9c2.8,1.6,5.9,3.1,8.5,4.9c1.8,1.2,5.1,2.8,7.1,3.7c0.7,0.3,0.9,0.3,1.6,0c0.7-0.4,1.4-0.8,2.1-1.2
					c2.5-1.4,4.9-3,7.4-4.5c2.2-1.3,4.4-2.9,6.5-4.3c0.6-0.4,0.7-0.9,0.6-1.6c-0.2-2.3-0.3-4.7-0.5-7c-0.2-2.7-0.3-5.6-0.5-8.3
					c-0.1-2.7-0.3-5.3-0.3-8c-0.1-1.8-0.2-3.7-0.3-5.5c-0.1-2-0.4-4.3-0.4-6.3C493.9,509.5,493.9,508,493.9,506.6z"/>
				<path class="st20" d="M493.3,506.6c0,0.9,0,3.4,0,4.3c0,1.1,0.6,9,0.7,11.8c0.1,2.8,0.6,14.4,0.8,16.3c0.2,2,0.4,6.5,0.5,7
					c0,0.5,0,0.8-0.4,1.1c-0.4,0.3-5.4,3.7-6.4,4.3c-1.1,0.7-5.9,3.7-7.3,4.5c-1.4,0.8-1.7,1-2.1,1.2c-0.4,0.2-0.5,0.3-1.1,0
					c-0.6-0.3-5.3-2.5-7-3.6c-1.7-1.1-6.7-3.9-8.6-4.9c-1.9-1.1-4.6-2.5-5.1-2.8c-0.5-0.3-0.6-0.3-0.6-0.9s-0.5-4.7-0.6-5.7
					c-0.1-1.1-0.4-4.7-0.6-5.7c-0.1-1.1-0.6-6.1-0.8-7.3c-0.2-1.2-0.7-5.8-0.8-6.8c-0.1-1-1-6.8-1.2-8.3c-0.3-1.4-0.6-3.4-0.7-4.1
					c-0.1-0.8-0.4-1.5,0.4-1.5c0.8-0.1,6.3-0.2,7.9-0.2c1.6,0,5.5,0.2,8.2,0.3c2.6,0,9.6,0.2,12.2,0.3c2.6,0.1,10.5,0,11.6,0
					C493.2,505.7,493.3,505.6,493.3,506.6z"/>
				<path class="st23" d="M477.5,554.8c0.6,0.4,0.8,0.5,1.4,0.1c0.5-0.3,0.7-0.4,1.2-0.8c1.8-1.5,4.7-3.3,6.8-4.6
					c2-1.3,4-2.8,5.9-4.2c0.7-0.5,0.7-0.9,0.6-1.7c-0.4-4.5,0-9-0.5-13.6c-0.5-5-0.7-10.2-1-15.2c-0.2-3.1-0.3-6.1-0.5-9.2l-0.5,0
					c0,0.9,0.3,5.9,0.5,9.3c0.2,3.7,0.7,12.9,1,15.2c0.5,4.4,0.1,9.1,0.5,13.5c0.1,0.9-0.1,1-0.4,1.2c-0.3,0.2-4.7,3.4-5.9,4.2
					c-1.2,0.8-6,4-6.9,4.7c-0.9,0.7-1,0.7-1.2,0.8c-0.2,0.1-0.2,0.3-0.8-0.1c-0.5-0.4-5.8-3-6.7-3.7c-0.9-0.6-5.8-3.3-7.6-4.6
					c-1.8-1.3-3.1-1.8-3.6-2.1c-0.5-0.3-0.8-0.3-0.8-1.4s-0.8-9.7-1-12.1c-0.2-2.4-1.3-11.7-1.7-14.3c-0.4-2.6-0.7-5.5-1-7.8
					c-0.3-1.9-0.4-3-0.4-3.3l-0.5,0c0.1,1.1,0.3,2.2,0.4,3.3c0.4,2.6,0.6,5.2,1,7.8c0.7,4.6,1.4,9.7,1.7,14.3
					c0.1,1.9,0.3,3.9,0.5,5.8c0.2,1.9,0.5,4.3,0.5,6.3c0,1.1,0.2,1.4,1.1,1.9c1.3,0.7,2.3,1.2,3.5,2c2.4,1.7,5.2,3,7.6,4.6
					C472.8,552.5,475.6,553.4,477.5,554.8z"/>
				<path class="st23" d="M452,509.1c1.9,0,3.9,0,5.8,0c4.6,0.1,9.2,0.5,13.8,0.5c4.5,0.1,9-0.1,13.5,0c2.8,0.1,5.7,0,8.4,0l0-0.4
					c-1.1,0-6.6,0.1-8.4,0c-2,0-10.4,0-13.6,0c-3.2,0-11.2-0.5-13.8-0.5c-2.4-0.1-5.3,0-5.8,0L452,509.1z"/>
				<path class="st21" d="M490.9,535.4c0,0,0.2,6,0.2,7.4c0,1.3,0,1.3-2.7,3.3c-2.7,2.1-7.1,4.6-8.8,5.2c-1.7,0.5-2.5,1-5.8-1.3
					c-3.3-2.3-7.7-4.7-10-6.5c-2.3-1.8-2.5-2.5-1.8-3.4c0.7-0.9,2.3-0.1,3.6,1.1c1.3,1.2,7.9,6,10.2,7.6c2.3,1.6,4.8-0.2,8.9-2.1
					c4-2,5-2.9,5.4-3.5c0.3-0.7,0.3-4.8,0.3-6.9C490.3,534.3,490.8,533.8,490.9,535.4z"/>
				<path class="st21" d="M485.4,513.2c-7-0.7-14.1-1.2-20.9-0.8c-9.8,0.6-8.9,2.4,0.3,2.6c2.7,0,10-0.3,20.4,0.1
					C491.6,515.3,491.7,513.8,485.4,513.2z"/>
			</g>
			<path class="st23" d="M458.4,470.7c3.6,0,7.3-0.1,10.9,0c1.8,0,3.5,0.1,5.3,0.2c1.8,0.1,4.2,0.1,5.9,0.3c0.5,0.1,0.8,0.4,1,0.9
				c0.2,0.5,0.2,1.1,0.3,1.6c0.5,2.2,0.6,4.7,1,7c0.4,2.4,0.5,4.9,0.8,7.3c0.1,0.9-0.4,1.2-1.2,1.2c-3.8,0-7.7-0.4-11.5-0.4
				c-3.3,0-6.7-0.2-10-0.4c-1.6-0.1-1.4-0.7-1.7-1.9c-0.6-2.6-1-6.1-1.4-8.8c-0.3-1.9-0.3-4-0.4-5.9
				C457.5,471.1,457.7,470.7,458.4,470.7z"/>
			<path class="st24" d="M458.1,471.7c0,0,0.1,4,0.4,5.9c0.3,1.9,1.1,7.6,1.3,8.7c0.3,1.2,0,1.4,1.2,1.5c1.2,0,8.1,0.4,9.9,0.4
				c1.8,0,10.8,0.4,11.5,0.4s0.8-0.1,0.7-0.6c-0.1-0.4-0.5-5.4-0.8-7.3c-0.3-1.8-0.8-5.9-1-7c-0.2-1-0.2-1.2-0.3-1.5
				c-0.1-0.3-0.3-0.5-0.5-0.6c-0.3,0-8.8-0.4-11.1-0.5c-2.4-0.1-10.8,0-10.9,0C458.3,471.2,458,471.2,458.1,471.7z"/>
			<path class="st25" d="M461,486.6c0,0-0.5-3.1-0.7-4.5c-0.2-1.4-0.9-5.9-1-6.8c-0.1-0.9-0.2-2.5-0.3-2.8c0-0.3,0-0.5,0.4-0.5
				c0.4,0,3,0,4.8-0.1c1.8,0,8,0.3,9.7,0.2c1.7,0,4.4,0.2,5.2,0.2c0.8,0,0.8,0.2,0.8,0.4c0.1,0.2,0.7,3.9,0.9,5.4
				c0.2,1.5,0.8,6.2,0.9,7.2c0.1,1.1,0.1,1.1,0.1,1.7c0,0.5,0.2,0.9-0.5,0.8c-0.8,0-5-0.2-6.7-0.3c-1.7-0.1-6.7-0.3-8.8-0.4
				c-2.1-0.1-3.7-0.1-4.2-0.1C461.2,486.9,461.1,486.9,461,486.6z"/>
			<path class="st24" d="M461.4,486.5c0.1,0,0.2,0,0.2,0c1.4,0,2.8,0.1,4.2,0.1c2.9,0.1,5.9,0.2,8.8,0.4c2.2,0.1,4.5,0.2,6.7,0.3
				c0,0,0.1,0,0.2,0c0-0.1,0-0.3,0-0.4c0-0.6-0.1-1.1-0.1-1.7c-0.2-2.3-0.5-4.9-0.9-7.2c-0.2-1.6-0.5-3.8-0.8-5.3c0,0,0-0.1,0-0.1
				c-0.1,0-0.4,0-0.4,0c-1.7,0-3.5-0.3-5.2-0.2c-3.2,0.1-6.5-0.3-9.7-0.2c-1.6,0-3.2,0-4.8,0.1c0,0,0,0-0.1,0c0,0,0,0.1,0,0.1
				c0.1,0.9,0.1,1.9,0.2,2.8c0.4,2.3,0.7,4.6,1,6.9C460.9,483.5,461.2,485,461.4,486.5C461.4,486.5,461.4,486.5,461.4,486.5z"/>
			<g>
				<path class="st26" d="M463.2,477.1l0.4,0c0,0.2,0.1,0.3,0.1,0.4c0.1,0.1,0.2,0.2,0.3,0.3c0.1,0.1,0.3,0.1,0.5,0.1
					c0.2,0,0.3,0,0.4-0.1c0.1,0,0.2-0.1,0.3-0.2c0.1-0.1,0.1-0.2,0.1-0.3c0-0.1,0-0.2-0.1-0.3c-0.1-0.1-0.2-0.1-0.3-0.2
					c-0.1,0-0.3-0.1-0.6-0.2c-0.3-0.1-0.5-0.1-0.6-0.2c-0.2-0.1-0.3-0.2-0.3-0.3c-0.1-0.1-0.1-0.3-0.1-0.4c0-0.2,0-0.3,0.1-0.5
					c0.1-0.1,0.2-0.2,0.4-0.3c0.2-0.1,0.4-0.1,0.6-0.1c0.2,0,0.5,0,0.6,0.1c0.2,0.1,0.3,0.2,0.4,0.3c0.1,0.2,0.2,0.3,0.2,0.5l-0.4,0
					c0-0.2-0.1-0.4-0.2-0.5c-0.1-0.1-0.3-0.2-0.6-0.2c-0.3,0-0.4,0-0.6,0.1c-0.1,0.1-0.2,0.2-0.2,0.3c0,0.1,0,0.2,0.1,0.3
					c0.1,0.1,0.3,0.2,0.6,0.2c0.3,0.1,0.6,0.1,0.7,0.2c0.2,0.1,0.3,0.2,0.4,0.3c0.1,0.1,0.1,0.3,0.1,0.5c0,0.2,0,0.3-0.1,0.5
					c-0.1,0.2-0.2,0.3-0.4,0.4c-0.2,0.1-0.4,0.1-0.6,0.1c-0.3,0-0.5,0-0.7-0.1c-0.2-0.1-0.4-0.2-0.5-0.4
					C463.3,477.5,463.2,477.3,463.2,477.1L463.2,477.1L463.2,477.1z M467.9,477.9c-0.1,0.1-0.3,0.2-0.4,0.3
					c-0.1,0.1-0.3,0.1-0.4,0.1c-0.3,0-0.5-0.1-0.6-0.2c-0.1-0.1-0.2-0.3-0.2-0.5c0-0.1,0-0.2,0.1-0.3c0.1-0.1,0.1-0.2,0.2-0.2
					c0.1-0.1,0.2-0.1,0.3-0.1c0.1,0,0.2,0,0.4-0.1c0.3,0,0.6-0.1,0.7-0.1c0-0.1,0-0.1,0-0.1c0-0.2,0-0.3-0.1-0.3
					c-0.1-0.1-0.3-0.1-0.5-0.1c-0.2,0-0.3,0-0.4,0.1c-0.1,0.1-0.2,0.2-0.2,0.3l-0.4-0.1c0-0.2,0.1-0.3,0.2-0.4
					c0.1-0.1,0.2-0.2,0.4-0.2c0.2-0.1,0.3-0.1,0.5-0.1c0.2,0,0.4,0,0.5,0.1c0.1,0,0.2,0.1,0.3,0.2c0.1,0.1,0.1,0.2,0.1,0.3
					c0,0.1,0,0.2,0,0.4v0.5c0,0.4,0,0.6,0,0.7c0,0.1,0.1,0.2,0.1,0.3h-0.4C467.9,478.1,467.9,478,467.9,477.9L467.9,477.9
					L467.9,477.9z M467.8,477c-0.1,0.1-0.4,0.1-0.6,0.1c-0.2,0-0.3,0-0.3,0.1c-0.1,0-0.1,0.1-0.2,0.1c0,0.1-0.1,0.1-0.1,0.2
					c0,0.1,0,0.2,0.1,0.3c0.1,0.1,0.2,0.1,0.3,0.1c0.2,0,0.3,0,0.4-0.1c0.1-0.1,0.2-0.2,0.3-0.3c0-0.1,0.1-0.2,0.1-0.4V477
					L467.8,477z M468.9,478.2v-2.3h0.4v0.3c0.1-0.1,0.2-0.2,0.3-0.3c0.1-0.1,0.3-0.1,0.4-0.1c0.2,0,0.3,0,0.4,0.1
					c0.1,0.1,0.2,0.2,0.2,0.3c0.2-0.3,0.4-0.4,0.7-0.4c0.2,0,0.4,0.1,0.5,0.2c0.1,0.1,0.2,0.3,0.2,0.6v1.6h-0.4v-1.5
					c0-0.2,0-0.3,0-0.3c0-0.1-0.1-0.1-0.1-0.2c-0.1,0-0.2-0.1-0.2-0.1c-0.2,0-0.3,0.1-0.4,0.2c-0.1,0.1-0.2,0.3-0.2,0.5v1.4h-0.4
					v-1.5c0-0.2,0-0.3-0.1-0.4c-0.1-0.1-0.2-0.1-0.3-0.1c-0.1,0-0.2,0-0.3,0.1c-0.1,0.1-0.2,0.1-0.2,0.3c0,0.1-0.1,0.3-0.1,0.5v1.2
					H468.9L468.9,478.2z M472.6,479.1v-3.2h0.4v0.3c0.1-0.1,0.2-0.2,0.3-0.3c0.1-0.1,0.2-0.1,0.4-0.1c0.2,0,0.4,0.1,0.5,0.2
					c0.2,0.1,0.3,0.2,0.3,0.4c0.1,0.2,0.1,0.4,0.1,0.6c0,0.2,0,0.5-0.1,0.6c-0.1,0.2-0.2,0.3-0.4,0.4c-0.2,0.1-0.3,0.2-0.5,0.2
					c-0.1,0-0.3,0-0.4-0.1c-0.1-0.1-0.2-0.1-0.3-0.2v1.1H472.6L472.6,479.1z M473,477c0,0.3,0.1,0.5,0.2,0.7
					c0.1,0.1,0.3,0.2,0.4,0.2c0.2,0,0.3-0.1,0.5-0.2c0.1-0.1,0.2-0.4,0.2-0.7c0-0.3-0.1-0.5-0.2-0.7c-0.1-0.1-0.3-0.2-0.4-0.2
					c-0.2,0-0.3,0.1-0.4,0.2C473,476.5,473,476.7,473,477L473,477L473,477z M475.1,478.2v-3.2h0.4v3.2H475.1L475.1,478.2z
					 M477.7,477.4l0.4,0.1c-0.1,0.2-0.2,0.4-0.4,0.6c-0.2,0.1-0.4,0.2-0.7,0.2c-0.3,0-0.6-0.1-0.8-0.3c-0.2-0.2-0.3-0.5-0.3-0.9
					c0-0.4,0.1-0.7,0.3-0.9c0.2-0.2,0.5-0.3,0.8-0.3c0.3,0,0.6,0.1,0.8,0.3c0.2,0.2,0.3,0.5,0.3,0.9c0,0,0,0.1,0,0.1h-1.7
					c0,0.3,0.1,0.5,0.2,0.6c0.1,0.1,0.3,0.2,0.5,0.2c0.1,0,0.3,0,0.4-0.1C477.6,477.7,477.7,477.6,477.7,477.4L477.7,477.4
					L477.7,477.4z M476.4,476.8h1.3c0-0.2-0.1-0.3-0.1-0.4c-0.1-0.2-0.3-0.2-0.5-0.2c-0.2,0-0.3,0.1-0.5,0.2
					C476.5,476.4,476.4,476.6,476.4,476.8z"/>
				<path class="st26" d="M463.2,480h3.5v0.9h-1.2v2.8h-1.1v-2.8h-1.2V480L463.2,480z M467.1,480h3.1v0.8h-1.9v0.6h1.8v0.8h-1.8v0.7
					h2v0.8h-3.1V480L467.1,480z M470.6,480h1.3l0.7,1.1l0.6-1.1h1.2l-1.2,1.8l1.3,1.9h-1.3l-0.7-1.2l-0.7,1.2h-1.3l1.3-1.9
					L470.6,480L470.6,480z M474.6,480h3.5v0.9h-1.2v2.8h-1.1v-2.8h-1.2V480z"/>
			</g>
			<g>
				<path class="st23" d="M491.7,505.6c0,0-0.6,0.3-0.7,0.8s0,1.5,0.1,1.9c0.1,0.4,0.3,0.8,0.9,0.8c0.6,0,1.6-0.4,1.8-1.4
					c0.1-1,0.3-1.8-0.2-2C493.1,505.6,492.1,505.4,491.7,505.6z"/>
				<path class="st27" d="M492.1,505.8c0.6-0.1,1.2,0.5,1.3,1.2c0.1,0.8-0.4,1.5-1,1.6c-0.6,0.1-1.2-0.5-1.3-1.2
					C491.1,506.6,491.5,505.9,492.1,505.8z"/>
				<path class="st25" d="M492.2,506.2c-0.4,0.1-0.6,0.7-0.6,1.1c0,0.3,0.3,0.9,0.7,0.8c0.4-0.1,0.6-0.7,0.6-1.1
					C492.9,506.7,492.6,506.2,492.2,506.2z"/>
			</g>
			<g>
				<path class="st23" d="M452.3,505.3c0,0-0.6,0.4-0.6,0.9c0,0.5,0.2,1.5,0.3,1.9c0.1,0.4,0.4,0.7,1,0.7c0.6-0.1,1.6-0.6,1.6-1.6
					c0-1,0-1.8-0.5-2C453.8,505.1,452.7,505,452.3,505.3z"/>
				<path class="st27" d="M452.9,505.4c0.6-0.2,1.2,0.3,1.4,1.1c0.2,0.8-0.2,1.5-0.8,1.7c-0.6,0.2-1.2-0.3-1.4-1.1
					C451.9,506.4,452.3,505.6,452.9,505.4z"/>
				<path class="st25" d="M453,505.9c-0.4,0.1-0.5,0.8-0.4,1.1c0.1,0.3,0.4,0.8,0.8,0.7c0.4-0.1,0.5-0.8,0.4-1.1
					C453.7,506.3,453.4,505.8,453,505.9z"/>
			</g>
			<g>
				<g>
					<path class="st23" d="M383.9,505.6c0,0,0.6,0.3,0.7,0.8c0.1,0.5,0,1.5-0.1,1.9c-0.1,0.4-0.3,0.8-0.9,0.8
						c-0.6,0-1.6-0.4-1.8-1.4c-0.1-1-0.3-1.8,0.2-2C382.5,505.6,383.4,505.4,383.9,505.6z"/>
					<path class="st27" d="M383.4,505.8c-0.6-0.1-1.2,0.5-1.3,1.2s0.4,1.5,1,1.6c0.6,0.1,1.2-0.5,1.3-1.2
						C384.5,506.6,384,505.9,383.4,505.8z"/>
					<path class="st25" d="M383.3,506.2c0.4,0.1,0.6,0.7,0.6,1.1c0,0.3-0.3,0.9-0.7,0.8c-0.4-0.1-0.6-0.7-0.6-1.1
						C382.7,506.7,382.9,506.2,383.3,506.2z"/>
				</g>
				<g>
					<path class="st23" d="M423.2,505.3c0,0,0.6,0.4,0.6,0.9c0,0.5-0.2,1.5-0.3,1.9c-0.1,0.4-0.4,0.7-1,0.7
						c-0.6-0.1-1.6-0.6-1.6-1.6c0-1,0-1.8,0.5-2C421.8,505.1,422.8,505,423.2,505.3z"/>
					<path class="st27" d="M422.7,505.4c-0.6-0.2-1.2,0.3-1.4,1.1c-0.2,0.8,0.2,1.5,0.8,1.7c0.6,0.2,1.2-0.3,1.4-1.1
						C423.6,506.4,423.3,505.6,422.7,505.4z"/>
					<path class="st25" d="M422.6,505.9c0.4,0.1,0.5,0.8,0.4,1.1c-0.1,0.3-0.4,0.8-0.8,0.7c-0.4-0.1-0.5-0.8-0.4-1.1
						C421.8,506.3,422.1,505.8,422.6,505.9z"/>
				</g>
			</g>
			<path class="st21" d="M396.8,627.5c2.7,0.1,7.1,0.3,8.7,1.4c2.4,1.5,2.6,2.8-1.3,2c-2-0.4-5.4-1-7.7-1.7
				C392.1,628.1,393.8,627.5,396.8,627.5L396.8,627.5z M383.2,632.7c-3.4,2-2.4,2.1,0.8,1.8c2.7-0.2,7.8-0.6,13.8-0.8
				c3.6-0.1,2.5-0.6,0-1C393.5,631.9,387.2,630.4,383.2,632.7z"/>
			<path class="st21" d="M487.8,627.9c-16.6-5.1-17.4,1.1-0.9,1.8C491.9,629.8,493.2,629.5,487.8,627.9z"/>
			<path class="st21" d="M480.1,634.9c3.2,0.1,3.9-0.6,0.6-1.5C468.4,629.8,466.6,634.6,480.1,634.9z"/>
		</g>
		<g>
			<path class="st28" d="M384.6,418.1c0.1-3.6,0.3-4.8,0.4-10.6c0.1-5.8-2-20.4-2.7-24.3c-0.3-1.5-0.7-3.4-1.1-5.3
				c-0.5,1.4-0.9,3-1.2,5c-0.8,4.8-1.6,5.7-2.8,7.9c-1.3,2.2-1.2,4.6-1.2,6.7c0,1.1,1,6.4,1,7c-0.1,3.3-0.2,5.6,0,8.1l-31.9-3
				c-0.2-3.1,0.9-6.4,0.9-8.3c0-2.1,0.7-5.7,1.1-8c0.4-2.3,0.9-6.4,0.8-7.8c-0.8-6.8-0.7-5.4,0.3-11.1c0.8-4.6,2.3-24.3,3-28.8
				c0.7-4.4,0.4-4.6,1.2-8.2c0.8-3.6,1-2,1.1-5.8c0.1-3.9,0.6-6.1,2-10.5c1.3-4.4,2.4-5,3.4-12.6c0.9-7.6,7.9-14.1,7.9-14.1
				s0.8-0.5,4-1.9c3.2-1.4,14.4-6.6,19.6-9.2c4.4-2.2,9-4.1,13.6-5.8c1.2-0.5,2.6-0.9,4.4-1.3c1.8-2.3,4.7-6.1,5.6-6.9
				c1.3-1.2,1.4-0.9,3.6-0.7c2.3,0.2,6.5,0.1,10.3,0.1c6.7,0.1,13.5,0.1,20.2,0c3.8,0,8.1,0,10.3-0.1c2.3-0.2,2.3-0.5,3.6,0.7
				c0.9,0.8,3.8,4.6,5.6,6.9c1.8,0.4,3.2,0.9,4.4,1.3c4.6,1.7,9.2,3.6,13.6,5.8c5.1,2.6,16.4,7.8,19.6,9.2c3.2,1.4,4,1.9,4,1.9
				s7,6.5,7.9,14.1c0.9,7.6,2,8.2,3.4,12.6c1.3,4.4,1.9,6.6,2,10.5c0.1,3.9,0.3,2.2,1.1,5.8c0.8,3.6,0.5,3.8,1.2,8.2
				c0.5,2.9,1.3,12.5,2,20c0.4,4.6,2.1,17,1.5,20.1c-0.4,2.2-0.8,5.7-0.3,7.7c0.5,2,1.8,5.4,2.3,8.5c0.3,2,0.5,5.6,0.5,8.1
				l-31.9,3.8c0.2-2.7,0.5-4.7,0.4-8.2c0-1.2,0.6-6.1,0.6-8.2c0-2.1,0.1-4.5-1.2-6.7c-1.3-2.2-2.1-3.1-2.8-7.9c-0.3-2-0.7-3.6-1.2-5
				c-0.4,1.9-0.9,3.8-1.1,5.3c-0.7,4-2.8,18.6-2.7,24.3c0.1,5.8,0.3,7,0.4,10.6c0.1,3.8,0.6,7.5,0.6,11.3c0,3.8,0.4,2.8,1.3,5.9
				c0.9,3.1,0.9,6,1.4,10c0.5,4,0.9,10.9,0.5,13.3c-0.5,2.4-0.3,4.3,0.1,6.6c0.4,2.3,1.4,5.2,1.5,7.7c0.1,2.5-0.3,4.2,0.4,5.5
				c0.7,1.3,1,2.1,1.3,4.2c0.3,2.1,0.8,3,0.9,3.8c0.2,0.8,0.2,1.1-0.4,1.8c-0.6,0.8-0.6,0.8-0.9,2.7c-0.4,1.9-1.7,3.4-2.8,5.8
				c-1.1,2.4-2.4,4.9-4.4,8.2c-2.1,3.4-6.7,3.6-10.7,5c-3.3,1.2-5.2,1-6.9,0.8c-0.8-0.1-2.7,0.3-3.6,0.6c-1.5,0.6-2.4,0.6-3.9,0.7
				c-1.4,0.2-2.7,0.3-4.1,0.3c-4.5-0.1-8.3-0.2-11.4-0.2c-10.9,0-20.7-0.2-32-0.1c-6.2,0.1-9.8,0-11-0.7c-1.3-0.7-0.8-0.9-2.7-0.8
				c-1.9,0.1-4,0.7-8-0.7c-4-1.4-8.6-1.6-10.7-5c-2.1-3.4-3.3-5.8-4.4-8.2c-1.1-2.4-2.4-3.9-2.8-5.8c-0.4-1.9-0.3-2-0.9-2.7
				c-0.6-0.7-0.6-1.1-0.4-1.8c0.2-0.8,0.6-1.6,0.9-3.8c0.3-2.1,0.6-2.8,1.3-4.2c0.7-1.3,0.4-3,0.4-5.5c0.1-2.5,1.1-5.4,1.5-7.7
				c0.4-2.3,0.6-4.3,0.1-6.6c-0.5-2.4,0-9.2,0.5-13.3c0.5-4,0.6-6.9,1.4-10c0.9-3.1,1.3-2.1,1.3-5.9
				C384.1,425.6,384.5,421.9,384.6,418.1z"/>
			<path class="st29" d="M528.2,394.9c0.6,2,1.5,4.6,1.9,6.9c0.3,2,0.5,5.6,0.5,8.1l-31.9,3.8c0.2-2.7,0.5-4.7,0.4-8.2
				c0-1,0.4-4.7,0.5-7c2.6-1.4,7-2.4,8.2-2.5c1.4-0.1,6.5-0.4,8.1-0.7c1.6-0.3,3.3-0.9,6.9-0.8C524.6,394.7,526.7,394.8,528.2,394.9
				z"/>
			<path class="st29" d="M375.9,396.3c0,0.4,0,0.8,0,1.2c0,1.1,1,6.4,1,7c-0.1,3.3-0.2,5.6,0,8.1l-31.9-3c-0.2-3.1,0.9-6.4,0.9-8.3
				c0-1.8,0.5-4.8,1-7.1c2.1,0,4.5,0,5.9-0.1c2.9-0.1,5.5-0.4,8.2,0.3c2.7,0.6,3.8,1.3,6.7,1.3C369.9,395.7,373.5,395.7,375.9,396.3
				z"/>
			<path class="st29" d="M366.6,294.4c-0.2,2.7-0.2,6.4,0.7,11c0.9,4.8,2.2,9.8,3.8,14.8c1.2,3.6,1.7,7.1,2.7,10.7
				c1.8,6.2,0.7,9.4-0.6,8.9c-1-0.3-1,0.4-0.2,1.6c2.4,3.9,2.5,5.7,2.7,10.2c0.1,1.8-0.1,3.2-1.2,3c-2.7-0.6-0.9,4.1-0.2,6.1
				c1.9,5.3,3.8,12.2,2.9,17.8c-0.6,3.6-0.7,4.7-2.5,8.1c-1.8,3.5-2.2,3.9-2.2,8.6c0,4.7,1.1,5.1-0.7,8c-1.8,2.9-2.6,2-2,5.5
				c0.2,1.4,0.5,2.4,0.5,3.3l6.6,0.6c-0.2-2.5-0.1-4.8,0-8.1c0-0.6-1-5.9-1-7c0-2.1-0.1-4.5,1.2-6.7c1.3-2.2,2.1-3.1,2.8-7.9
				c0.3-2,0.7-3.6,1.2-5c0.4,1.9,0.9,3.8,1.1,5.3c0.7,4,2.8,18.6,2.7,24.3c-0.1,5.8-0.3,7-0.4,10.6c-0.1,3.8-0.5,7.5-0.5,11.3
				c0,3.8-0.4,2.8-1.3,5.9c-0.9,3.1-0.9,6-1.4,10c-0.5,4-0.9,10.9-0.5,13.3c0.5,2.4,0.3,4.3-0.1,6.6c-0.4,2.3-1.4,5.2-1.5,7.7
				c-0.1,2.5,0.3,4.2-0.4,5.5c-0.7,1.3-1,2.1-1.3,4.2c-0.3,2.1-0.8,3-0.9,3.8c-0.2,0.8-0.2,1.1,0.4,1.8c0.6,0.8,0.6,0.8,0.9,2.7
				c0.4,1.9,1.7,3.4,2.8,5.8c1.1,2.4,2.4,4.9,4.4,8.2c1.4,2.2,3.9,3.1,6.6,3.8c-3.6-2.4-5.2-5.5-7.4-9.6c-3-5.5-3.3-9.4-2.8-11.5
				c0.6-2.1,0.6-2.5-0.3-6.7c-0.9-4.2,1-5.3,2.3-9.9c1.3-4.6,0.9-3.2,0.4-7.6c-0.6-4.3-0.2-9.5,1.1-11.9c1.3-2.4,1.7-2.7,0.4-6
				c-1.3-3.3,0-5,1.1-8.6c1-3.4,0.9-8,1.8-11.9c1.6-7.1,0.9-4.7,0.1-10.7c-0.8-6-0.8-3.4,1.4-5.8c2.2-2.4-0.7-5.2-2.1-11.3
				c-1.7-7.5-1.1-15.7-3.7-23c-0.9-2.6-1.4-5.4-1.3-8.1c0-3.7-0.7-3.8-2.4-5.5c-3.8-4-2-2.7-0.6-6.6c1.4-3.9,1.1-4.5,0-6.6
				c-1-2.1-0.7-3.2-1.8-8.1c-0.9-4.3-2.1-8.4-2.5-9.4c-1.1-3.2-2.7-6-3.8-9.3c-1.7-5.1-3-10.3-4-15.2c-0.9-4.7-0.9-8.5-0.7-11.3
				C366.8,294.3,366.6,294.4,366.6,294.4z"/>
			<path class="st29" d="M509,294.4c0.2,2.7,0.2,6.4-0.7,11c-0.9,4.8-2.2,9.8-3.8,14.8c-1.2,3.6-1.7,7.1-2.7,10.7
				c-1.8,6.2-0.7,9.4,0.6,8.9c1-0.3,1,0.4,0.2,1.6c-2.4,3.9-2.5,5.7-2.7,10.2c-0.1,1.8,0.1,3.2,1.2,3c2.7-0.6,0.9,4.1,0.2,6.1
				c-1.9,5.3-3.8,12.2-2.9,17.8c0.6,3.6,0.7,4.7,2.5,8.1c1.8,3.5,2.2,3.9,2.2,8.6c0,4.7-1.1,5.1,0.7,8c1.8,2.9,2.6,2,2,5.5
				c-0.4,2.1-0.8,3.5-0.3,4.3l-7,0.8c0.2-2.7,0.5-4.7,0.4-8.2c0-1.2,0.6-6.1,0.6-8.2c0-2.1,0.1-4.5-1.2-6.7
				c-1.3-2.2-2.1-3.1-2.8-7.9c-0.3-2-0.7-3.6-1.2-5c-0.4,1.9-0.9,3.8-1.1,5.3c-0.7,4-2.8,18.6-2.7,24.3c0.1,5.8,0.3,7,0.4,10.6
				c0.1,3.8,0.6,7.5,0.6,11.3c0,3.8,0.4,2.8,1.3,5.9c0.9,3.1,0.9,6,1.4,10c0.5,4,0.9,10.9,0.5,13.3c-0.5,2.4-0.3,4.3,0.1,6.6
				c0.4,2.3,1.4,5.2,1.5,7.7c0.1,2.5-0.3,4.2,0.4,5.5c0.7,1.3,1,2.1,1.3,4.2c0.3,2.1,0.8,3,0.9,3.8c0.2,0.8,0.2,1.1-0.4,1.8
				c-0.6,0.8-0.6,0.8-0.9,2.7c-0.4,1.9-1.7,3.4-2.8,5.8c-1.1,2.4-2.4,4.9-4.4,8.2c-1.4,2.2-3.9,3.1-6.6,3.8c3.6-2.4,5.2-5.5,7.4-9.6
				c3-5.5,3.3-9.4,2.8-11.5c-0.6-2.1-0.6-2.5,0.3-6.7c0.9-4.2-1-5.3-2.3-9.9c-1.3-4.6-0.9-3.2-0.4-7.6c0.6-4.3,0.2-9.5-1.1-11.9
				c-1.3-2.4-1.7-2.7-0.4-6c1.3-3.3,0-5-1.1-8.6c-1-3.3-1-8-1.8-11.9c-1.6-7.1-0.9-4.7-0.1-10.7c0.8-6,0.8-3.4-1.4-5.8
				c-2.2-2.4,0.7-5.2,2.1-11.3c1.7-7.5,1.1-15.7,3.7-23c0.9-2.6,1.4-5.4,1.3-8.1c0-3.7,0.7-3.8,2.4-5.5c3.8-4,2-2.7,0.6-6.6
				c-1.4-3.9-1.1-4.5,0-6.6c1-2.1,0.7-3.2,1.8-8.1c0.9-4.3,2.1-8.4,2.5-9.4c1.2-3.2,2.7-6,3.8-9.3c1.7-5.1,3-10.3,4-15.2
				c0.9-4.7,0.9-8.5,0.7-11.3C508.8,294.3,509,294.4,509,294.4z"/>
			<g>
				<path class="st28" d="M347.1,415.9c-2.1-1-3.7-2.4-3.7-5.1c0-1.1,0-2.1-0.1-3.8c-0.1-1.7,0-2.9-0.2-4.5
					c-0.2-1.6,0.1-4.3,0.1-5.1c0-1.5,0.9-1.7,2.2-1.8c1.1-0.1,2.5-0.1,4.2-0.2c7.2-0.3,8.9,0.7,8.9,0.7s7.2,1.2,11,1.3
					c3.9,0.1,4.7,0.4,5.3,1.4c0.6,1.1,1.4,2.3,2.9,2.9c1.5,0.6,2.4,1.2,2.4,1.6c0,0.4-1.4,3.8-2,6.1c-0.5,2.3-1.5,5.2-1.5,5.2
					s-1.5-1-2.8-1.6c-1.3-0.6-5.7-0.4-8.6-0.5c-2.9-0.1-10.2,0-13,0.8C349.4,414.2,347.1,415.9,347.1,415.9z"/>
				<path class="st30" d="M347.1,415.9c-1.7-0.9-3.2-1.9-3.6-3.9c1.1,0,2.3-0.1,3.2-0.7c1.9-1.4,4.2-3,6.2-2.7
					c2,0.3,3.1-0.3,5.5-0.3c2.4,0,5.2,1.6,8.6,1.6c3.4,0,8,1,8.5,1c0.2,0,1.1,0.6,2.1,1.2c-0.4,1.4-0.8,2.5-0.8,2.5s-1.5-1-2.8-1.6
					c-1.3-0.6-5.7-0.4-8.6-0.5c-2.9-0.1-10.2,0-13,0.8C349.4,414.2,347.1,415.9,347.1,415.9z"/>
			</g>
			<g>
				<path class="st28" d="M528.5,416.6c2.1-1,3.7-2.4,3.7-5.1c0-1.1,0-2.1,0.1-3.8c0.1-1.7,0-2.9,0.2-4.5c0.2-1.6-0.1-4.3-0.1-5.1
					c0-1.5-0.9-1.7-2.2-1.8c-1.1-0.1-2.5-0.1-4.2-0.2c-7.2-0.3-8.9,0.7-8.9,0.7s-7.2,1.2-11.1,1.3c-3.9,0.1-4.7,0.4-5.3,1.4
					c-0.6,1.1-1.4,2.3-2.9,2.9c-1.5,0.6-2.4,1.2-2.4,1.6c0,0.4,1.4,3.8,2,6.1c0.5,2.3,1.5,5.2,1.5,5.2s1.5-1,2.8-1.6
					c1.3-0.6,5.7-0.4,8.6-0.5c2.9-0.1,10.2,0,13,0.8C526.2,415,528.5,416.6,528.5,416.6z"/>
				<path class="st30" d="M528.5,416.6c1.7-0.9,3.2-1.9,3.6-3.9c-1.1,0-2.3-0.1-3.2-0.7c-1.9-1.4-4.2-3-6.2-2.7
					c-2,0.3-3.1-0.3-5.5-0.3s-5.2,1.6-8.6,1.6c-3.4,0-8,1-8.5,1c-0.2,0-1.1,0.6-2.1,1.2c0.4,1.4,0.8,2.5,0.8,2.5s1.5-1,2.8-1.6
					c1.3-0.6,5.7-0.4,8.6-0.5c2.9-0.1,10.2,0,13,0.8C526.2,415,528.5,416.6,528.5,416.6z"/>
			</g>
			<path class="st29" d="M408.2,276.2c1.6,1.2,3.6,2,6.5,2.5c3.5,0.6,7.8,0.7,11.7,0.7h22.9c3.9,0,8.2-0.1,11.7-0.7
				c2.9-0.5,4.9-1.4,6.5-2.5c0.5,0.1,0.9,0.2,1.3,0.3c-2.1,1.7-4.8,2.7-7.6,3.2c-3.9,0.7-7.8,0.7-11.7,0.7h-23.1
				c-3.9,0-7.9-0.1-11.7-0.7c-2.7-0.5-5.4-1.5-7.6-3.2C407.3,276.4,407.7,276.3,408.2,276.2z"/>
		</g>
	</g>
	<path class="st31" d="M414,203c2.2-16.4,33.1-14.5,45.2-4.4c12.5,10.4,6.5,22.6,4.9,35.9v0l0,0l-1.7,8.8c-0.1,0.4-0.2,0.7-0.3,1.1
		l-4.1,10.1c-0.9,2.1-2.9,3.5-5.3,3.5h-29.2c-2.3,0-4.4-1.4-5.3-3.5l-4.1-10.1c-0.1-0.3-0.2-0.7-0.3-1.1l-1.7-8.8v0
		C411.2,226.3,404,205.9,414,203z"/>
</g>
<path class="st3" d="M265.9,293.3h-19.2c-3.4,0-6.2-2.8-6.2-6.2v-3.6c0-3.4,2.8-6.2,6.2-6.2h19.2c3.4,0,6.2,2.8,6.2,6.2v3.6
	C272.1,290.6,269.3,293.3,265.9,293.3z"/>
</svg>
