<?xml version="1.0" encoding="utf-8"?>
<!-- Generator: Adobe Illustrator 22.1.0, SVG Export Plug-In . SVG Version: 6.00 Build 0)  -->
<svg version="1.1" xmlns="http://www.w3.org/2000/svg" xmlns:xlink="http://www.w3.org/1999/xlink" x="0px" y="0px"
	 viewBox="0 0 123.7 123.7" style="enable-background:new 0 0 123.7 123.7;" xml:space="preserve">
<style type="text/css">
	.st0{clip-path:url(#SVGID_2_);}
	.st1{clip-path:url(#SVGID_4_);fill:#EF6D22;}
	.st2{display:none;clip-path:url(#SVGID_4_);fill:#FFFFFF;}
	.st3{fill:#FFFFFF;}
	.st4{display:none;}
	.st5{display:inline;}
	.st6{clip-path:url(#SVGID_6_);}
	.st7{clip-path:url(#SVGID_8_);fill:#3B3B3B;}
	.st8{display:none;clip-path:url(#SVGID_8_);fill:#FFFFFF;}
	.st9{clip-path:url(#SVGID_8_);}
	.st10{fill:#BADA55;}
</style>
<g id="Layer_1">
	<g>
		<g>
			<defs>
				<rect id="SVGID_1_" x="0.1" y="-0.1" width="123.7" height="123.7"/>
			</defs>
			<clipPath id="SVGID_2_">
				<use xlink:href="#SVGID_1_"  style="overflow:visible;"/>
			</clipPath>
			<g class="st0">
				<defs>
					<rect id="SVGID_3_" x="0.1" y="-0.1" width="123.7" height="123.7"/>
				</defs>
				<clipPath id="SVGID_4_">
					<use xlink:href="#SVGID_3_"  style="overflow:visible;"/>
				</clipPath>
				<path class="st1" d="M100.6,123.7H23.3c-12.8,0-23.2-10.4-23.2-23.2V23.2C0.1,10.4,10.6,0,23.3,0h77.3
					c12.8,0,23.2,10.4,23.2,23.2v77.3C123.8,113.2,113.4,123.7,100.6,123.7"/>
				<path class="st2" d="M85.8,63.2c-2,3.7-4.6,6.8-7.9,9.2c3.3,2.5,6,5.6,7.9,9.3c2,3.7,2.9,7.8,2.9,12.2v5.4H78.2V94
					c0-2.2-0.4-4.3-1.3-6.3c-0.8-2-2-3.7-3.5-5.1c-1.5-1.5-3.2-2.6-5.1-3.5c-2-0.8-4-1.3-6.3-1.3c-2.2,0-4.3,0.4-6.3,1.3
					c-2,0.8-3.7,2-5.2,3.5C49,84,47.8,85.7,47,87.7c-0.8,2-1.3,4.1-1.3,6.3v5.4H35.2V94V24.3h10.6l0,48.4c2.3-1.7,4.8-3.1,7.6-4
					c2.7-1,5.6-1.4,8.7-1.4c2.2,0,4.3-0.4,6.3-1.3c2-0.8,3.7-2,5.1-3.5c1.5-1.5,2.6-3.2,3.5-5.2c0.8-2,1.3-4.1,1.3-6.3v-5.3h10.6V51
					C88.8,55.4,87.8,59.5,85.8,63.2z"/>
			</g>
		</g>
		<g>
			<path class="st3" d="M87,63.2C85,66.9,82.4,70,79,72.5c3.3,2.5,6,5.6,7.9,9.3c1.9,3.7,2.9,7.8,2.9,12.2v5.4H79.3v-5.4
				c0-2.2-0.4-4.3-1.3-6.3c-0.8-1.9-2-3.7-3.5-5.1c-1.5-1.5-3.2-2.6-5.1-3.5c-1.9-0.8-4-1.3-6.3-1.3c-2.2,0-4.3,0.4-6.3,1.3
				c-2,0.8-3.7,2-5.2,3.5c-1.5,1.5-2.6,3.2-3.5,5.1c-0.8,1.9-1.3,4-1.3,6.3v5.4H36.4v-5.4V24.3H47v48.4c2.3-1.7,4.8-3.1,7.6-4.1
				c2.7-1,5.6-1.4,8.6-1.4c2.2,0,4.3-0.4,6.3-1.3c1.9-0.8,3.7-2,5.1-3.5c1.5-1.5,2.6-3.2,3.5-5.2c0.8-2,1.3-4.1,1.3-6.3v-5.2h10.6
				V51C89.9,55.5,88.9,59.5,87,63.2z"/>
		</g>
	</g>
</g>
<g id="Layer_1_copy" class="st4">
	<g class="st5">
		<g>
			<defs>
				<rect id="SVGID_5_" x="0" y="-0.1" width="123.7" height="123.7"/>
			</defs>
			<clipPath id="SVGID_6_">
				<use xlink:href="#SVGID_5_"  style="overflow:visible;"/>
			</clipPath>
			<g class="st6">
				<defs>
					<rect id="SVGID_7_" x="0" y="-0.1" width="123.7" height="123.7"/>
				</defs>
				<clipPath id="SVGID_8_">
					<use xlink:href="#SVGID_7_"  style="overflow:visible;"/>
				</clipPath>
				<path class="st7" d="M100.5,123.7H23.2C10.4,123.7,0,113.2,0,100.5V23.2C0,10.4,10.4,0,23.2,0h77.3c12.8,0,23.2,10.4,23.2,23.2
					v77.3C123.7,113.2,113.2,123.7,100.5,123.7"/>
				<path class="st8" d="M85.7,63.2c-2,3.7-4.6,6.8-7.9,9.2c3.3,2.5,6,5.6,7.9,9.3c2,3.7,2.9,7.8,2.9,12.2v5.4H78V94
					c0-2.2-0.4-4.3-1.3-6.3c-0.8-2-2-3.7-3.5-5.1c-1.5-1.5-3.2-2.6-5.1-3.5c-2-0.8-4-1.3-6.3-1.3c-2.2,0-4.3,0.4-6.3,1.3
					c-2,0.8-3.7,2-5.2,3.5c-1.5,1.5-2.6,3.2-3.5,5.1c-0.8,2-1.3,4.1-1.3,6.3v5.4H35V94V24.3h10.6l0,48.4c2.3-1.7,4.8-3.1,7.6-4
					c2.7-1,5.6-1.4,8.7-1.4c2.2,0,4.3-0.4,6.3-1.3c2-0.8,3.7-2,5.1-3.5c1.5-1.5,2.6-3.2,3.5-5.2c0.8-2,1.3-4.1,1.3-6.3v-5.3h10.6V51
					C88.6,55.4,87.7,59.5,85.7,63.2z"/>
				<g class="st9">
					<path class="st10" d="M88.7,24.2v48.3c0,3.7-0.7,7.1-2.1,10.4c-1.4,3.3-3.3,6.1-5.7,8.6c-2.4,2.5-5.3,4.4-8.5,5.8
						c-3.3,1.4-6.7,2.1-10.4,2.1c-3.7,0-7.1-0.7-10.4-2.1c-3.3-1.4-6.1-3.3-8.6-5.8c-2.5-2.5-4.4-5.3-5.8-8.6
						c-1.4-3.3-2.1-6.7-2.1-10.4c0-3.7,0.7-7.2,2.1-10.5c1.4-3.2,3.3-6.1,5.8-8.5c2.5-2.4,5.3-4.3,8.6-5.7c3.3-1.4,6.7-2.1,10.4-2.1
						H78V24.2H88.7z M61.9,88.8c2.2,0,4.3-0.4,6.3-1.3c2-0.8,3.7-2,5.1-3.5c1.5-1.5,2.6-3.2,3.5-5.2c0.8-2,1.3-4.1,1.3-6.3V56.4
						H61.9c-2.2,0-4.3,0.4-6.3,1.3c-2,0.8-3.7,2-5.2,3.5c-1.5,1.5-2.6,3.2-3.5,5.1c-0.8,2-1.3,4-1.3,6.3c0,2.2,0.4,4.3,1.3,6.3
						c0.8,2,2,3.7,3.5,5.2c1.5,1.5,3.2,2.6,5.2,3.5C57.5,88.4,59.7,88.8,61.9,88.8z"/>
				</g>
			</g>
		</g>
	</g>
</g>
</svg>
