<?xml version="1.0" encoding="utf-8"?>
<!-- Generator: Adobe Illustrator 22.1.0, SVG Export Plug-In . SVG Version: 6.00 Build 0)  -->
<svg version="1.1" id="Layer_1" xmlns="http://www.w3.org/2000/svg" xmlns:xlink="http://www.w3.org/1999/xlink" x="0px" y="0px"
	 viewBox="0 0 743 749" style="enable-background:new 0 0 743 749;" xml:space="preserve">
<style type="text/css">
	.st0{fill:#70CADB;}
	.st1{fill:#E01765;}
	.st2{fill:#E8A723;}
	.st3{fill:#3EB890;}
	.st4{fill:#CC2027;}
	.st5{fill:#361238;}
	.st6{fill:#65863A;}
	.st7{fill:#1A937D;}
</style>
<title>background</title>
<title>Layer 1</title>
<path class="st0" d="M62.9,403.2C35.3,403.4,12,387,3.4,361.3c-0.3-1-0.6-1.9-0.9-2.9c-9.4-32.8,8.8-67.2,41.4-78.2L567,105
	c6.2-1.8,12.6-2.7,19.1-2.8c28.3-0.2,52.3,16.6,61.1,42.8l0.8,2.5c9.8,34.2-14.5,64.7-43.7,74.5c0,0-5.3,1.8-520.2,177.6
	C77.3,401.9,70.1,403.1,62.9,403.2L62.9,403.2z"/>
<path class="st1" d="M150.1,660.5c-27.8,0.2-51.2-16-59.7-41.3c-0.3-1-0.6-1.9-0.9-2.9c-9.5-33.2,8.7-68,41.4-79L654,360.5
	c6.8-2.3,13.7-3.4,20.8-3.5c27.9-0.2,52.3,16.8,61,42.4l0.8,2.7c5.1,17.7,2.1,37.5-8,53.2c-7.5,11.7-31.1,21.9-31.1,21.9
	L172.3,656.7C165.2,659.1,157.7,660.4,150.1,660.5L150.1,660.5z"/>
<path class="st2" d="M585.6,661.6c-27.8,0.3-52.6-17.4-61.5-43.8L349.5,99.2l-0.9-2.9c-9.5-33.1,8.7-67.6,41.3-78.6
	c6.5-2.2,13.3-3.3,20.1-3.4c10.1-0.1,19.8,2.2,29,6.7c15.3,7.6,26.9,20.9,32.4,37.1L646,576.8l0.5,1.7c9.8,34.3-8.3,68.9-41,79.8
	C599.1,660.4,592.4,661.5,585.6,661.6L585.6,661.6z"/>
<path class="st3" d="M326.1,749c-27.8,0.3-52.7-17.4-61.5-43.8L90,186.6c-11.4-33.6,6.7-70,40.3-81.4c0,0,0.1,0,0.1,0
	c6.5-2.2,13.2-3.3,20-3.4c27.8-0.3,52.7,17.4,61.5,43.8l174.6,518.6c11.4,33.6-6.7,70-40.3,81.4c-0.1,0-0.1,0-0.2,0.1
	C339.6,747.8,332.8,748.9,326.1,749L326.1,749L326.1,749z"/>
<path class="st4" d="M499.5,544.8l121.7-41.6L581.5,385l-121.9,41.2L499.5,544.8z"/>
<path class="st5" d="M240.4,633.4l121.7-41.6L322,472.7l-121.9,41.2L240.4,633.4z"/>
<path class="st6" d="M412.8,287.4l121.7-41.6L495.3,129l-122,40.9L412.8,287.4z"/>
<path class="st7" d="M153.7,375.9l121.7-41.6L235.6,216l-122,40.9L153.7,375.9z"/>
</svg>
