<?xml version="1.0" encoding="utf-8"?>
<!-- Generator: Adobe Illustrator 22.1.0, SVG Export Plug-In . SVG Version: 6.00 Build 0)  -->
<svg version="1.1" id="Layer_1" xmlns="http://www.w3.org/2000/svg" xmlns:xlink="http://www.w3.org/1999/xlink" x="0px" y="0px"
	 viewBox="0 0 655 696.8" style="enable-background:new 0 0 655 696.8;" xml:space="preserve">
<style type="text/css">
	.st0{fill:#FDBB30;}
</style>
<g>
	<title>Layer 1</title>
	<g id="layer1">
		<path id="path2974" class="st0" d="M327.5,236c16.1,0,29.4-8.4,31.2-19.2l15.9-180c0-17.8-20.8-32.4-47-32.4
			c-26.2,0-47,14.6-47,32.4l15.9,180C298.2,227.6,311.5,236,327.5,236L327.5,236"/>
		<path id="path2976" class="st0" d="M230.2,292.2c8.1-13.9,7.5-29.6-1-36.6l-148-103.8c-15.4-8.9-38.4,1.8-51.5,24.5
			c-13.1,22.7-10.8,48,4.5,56.9L198,309.6C208.3,313.4,222.2,306.1,230.2,292.2L230.2,292.2"/>
		<path id="path2978" class="st0" d="M424.8,292.1c8.1,13.9,22,21.2,32.2,17.4l163.8-76.3c15.4-8.9,17.6-34.2,4.6-56.9
			c-13.1-22.7-36.3-33.4-51.6-24.5l-148,103.8C417.5,262.6,416.8,278.3,424.8,292.1L424.8,292.1"/>
		<path id="path2980" class="st0" d="M327.5,460.8c16.1,0,29.4,8.3,31.2,19.2l15.9,180c0,17.8-20.8,32.4-47,32.4
			c-26.2,0-47-14.6-47-32.4l15.9-180C298.2,469.2,311.5,460.8,327.5,460.8L327.5,460.8"/>
		<path id="path2982" class="st0" d="M424.8,404.6c8.1-14,22-21.2,32.2-17.4l163.8,76.2c15.4,8.9,17.6,34.3,4.6,57
			c-13.1,22.6-36.3,33.4-51.6,24.5l-148-103.7C417.5,434.2,416.8,418.5,424.8,404.6L424.8,404.6"/>
		<path id="path2984" class="st0" d="M230.2,404.6c8.1,13.9,7.5,29.6-1,36.6l-148,103.7c-15.4,8.9-38.4-1.9-51.5-24.5
			c-13.1-22.7-10.8-48.1,4.5-57L198,387.3C208.3,383.4,222.2,390.7,230.2,404.6L230.2,404.6"/>
	</g>
</g>
</svg>
